# WaveFront *.obj file (generated by CINEMA 4D)

mtllib ./membrane_lowres.mtl

v 63.10784149169922 10.1023120880127 -22.73808097839355
v 51.63442993164062 10.09957408905029 -7.58849382400513
v 54.18867492675781 1.77436113357544 -18.22786712646484
v 62.04216003417969 1.93979120254517 -19.0926513671875
v 58.72602081298828 2.18555903434753 -28.49951934814453
v 57.1196174621582 11.9747896194458 -7.13986492156982
v 61.3012809753418 13.2786693572998 -18.8563346862793
v 51.9034538269043 10.04183387756348 -7.75224351882935
v 51.28952026367188 13.19889545440674 -16.67177581787109
v 61.70059585571289 5.78546285629272 -19.32590675354004
v 44.01184463500977 7.29850959777832 -18.91440582275391
v 50.28879928588867 8.14657783508301 -9.81631088256836
v 61.26408386230469 11.64548110961914 -18.60686492919922
v 62.08434295654297 10.72262287139893 -10.71048069000244
v 56.86409378051758 11.64283180236816 -35.70547103881836
v 57.84464645385742 1.68772852420807 -23.43491744995117
v 61.81306838989258 10.68856525421143 -10.44083499908447
v 51.06207275390625 5.99065208435059 -32.91559219360352
v 61.84626007080078 10.74660205841064 -10.06342792510986
v 51.53091430664062 11.09943008422852 -7.67612648010254
v 42.83940124511719 11.52351474761963 -24.03010940551758
v 60.61886215209961 8.3076343536377 -29.82951545715332
v 52.01348876953125 10.05021381378174 -7.33479070663452
v 55.11731719970703 2.21077513694763 -32.14912414550781
v 47.83482360839844 2.32323002815247 -22.1416187286377
v 50.42919158935547 4.81267642974854 -13.25381851196289
v 59.4773063659668 4.26994800567627 -16.21619606018066
v 47.11277389526367 11.93656349182129 -28.9770393371582
v 59.3249626159668 5.63508796691895 -36.73581695556641
v 54.30974960327148 12.95449542999268 -31.12407875061035
v 45.3397216796875 6.97783041000366 -26.93489456176758
v 61.19746017456055 11.31672286987305 -0.95279604196548
v 47.38823699951172 3.53642725944519 -17.96702194213867
v 51.31253433227539 1.87120747566223 -26.42478942871094
v 60.37435531616211 8.67475700378418 -2.67108106613159
v 50.97544479370117 11.71639156341553 -35.15559768676758
# 36 vertices

vn -0.79385936260223 -0.60809433460236 -0.0029338975437
vn -0.83633679151535 -0.54621255397797 -0.04682505875826
vn -0.86502236127853 -0.48622685670853 -0.1237730756402
vn 0 0 0
vn 0.66966712474823 0.74246203899384 0.01720871776342
vn 0.67402309179306 0.73853045701981 0.01629674807191
vn -0.55475372076035 0.01547558605671 0.83187067508698
vn -0.54366630315781 -0.26383537054062 0.79675459861755
vn -0.56294047832489 0.00994268339127 0.82643765211105
vn -0.68603020906448 -0.18038904666901 -0.70485627651215
vn -0.39122352004051 -0.44669955968857 -0.80461400747299
vn -0.51036894321442 -0.39247471094131 -0.76517128944397
vn -0.3700994849205 -0.54902195930481 -0.74940055608749
vn -0.12020406126976 -0.98833459615707 0.09351827949286
vn -0.00276322616264 -0.99969661235809 -0.02447471581399
vn -0.0206563193351 -0.99975520372391 -0.00792782474309
vn -0.80318868160248 0.04247776046395 -0.59420835971832
vn -0.78389269113541 -0.06023306772113 -0.61796778440475
vn -0.8345673084259 0.31535413861275 0.4517180621624
vn -0.52874594926834 -0.54629904031754 0.64960372447968
vn -0.46891987323761 -0.51241153478622 0.71940851211548
vn -0.5906343460083 -0.56769412755966 0.57347583770752
vn -0.11456467211246 0.99091917276382 0.0703856870532
vn -0.067895360291 0.99319261312485 0.09465039521456
vn -0.06432015448809 0.99754399061203 0.02772837877274
vn 0.9276614189148 -0.35802790522575 0.10611444711685
vn 0.91373705863953 -0.39536815881729 0.09364108741283
vn 0.87683206796646 -0.45376351475716 0.1589472591877
vn -0.09341979771852 -0.99199396371841 0.08497511595488
vn -0.16817152500153 0.9808030128479 -0.09871064126492
vn -0.09140229970217 0.98782598972321 -0.12587851285934
vn -0.0986370742321 0.9712433218956 -0.21669599413872
vn -0.04987454786897 0.99862366914749 0.01622614450753
vn 0.01756853237748 0.99300265312195 0.11677765101194
vn 0.00268496060744 0.99880599975586 0.04877865687013
vn 0.03311580792069 -0.96027702093124 0.27707651257515
vn 0.04326797649264 -0.95092803239822 0.30637192726135
vn 0.02363126352429 -0.99749356508255 -0.06669474393129
vn 0.92605948448181 -0.34874972701073 -0.14417850971222
vn 0.93527066707611 -0.3213803768158 -0.1482680439949
vn 0.93956303596497 -0.32936474680901 -0.0934886932373
vn -0.75323814153671 -0.64882427453995 0.10797828435898
vn 0.84635180234909 -0.49956429004669 0.1847273260355
vn 0.02292891032994 -0.96861898899078 0.24749055504799
vn -0.09507689625025 -0.49480506777763 0.86378717422485
vn -0.00275201792829 -0.62403857707977 0.78138864040375
vn 0.33992385864258 -0.87599861621857 -0.34216687083244
vn 0.94998472929001 -0.30660858750343 -0.05933121219277
vn -0.16799934208393 0.97202396392822 0.16415123641491
vn -0.02035536244512 0.99268561601639 0.11899968981743
vn 0.03165856003761 -0.99876832962036 -0.03820452094078
vn 0.85714638233185 0.40555775165558 -0.31752642989159
vn -0.09052056074142 0.13220849633217 -0.98708003759384
vn -0.5371505022049 -0.44633355736732 0.71572035551071
vn -0.62011963129044 -0.73073327541351 0.28544780611992
vn -0.67155176401138 -0.51028525829315 0.53724032640457
vn 0.78349310159683 0.10671862214804 0.61216807365417
vn -0.82907748222351 -0.05456674098969 0.55646467208862
vn -0.8396281003952 -0.03944734111428 0.54172742366791
vn -0.75680327415466 0.0014160189312 -0.65364122390747
vn 0.66528755426407 0.74636733531952 0.01812008023262
vn -0.23405186831951 -0.94002306461334 0.24814589321613
vn 0.59995764493942 0.7140588760376 -0.36079183220863
vn 0.24603947997093 -0.9610161781311 0.12614454329014
vn 0.57850658893585 0.81064665317535 0.09045480936766
vn -0.56825709342957 -0.70929288864136 -0.41711807250977
vn -0.5705538392067 -0.69940674304962 -0.43046319484711
vn -0.59972983598709 -0.67058563232422 -0.436622351408
vn 0.71819448471069 0.02160318568349 -0.6955069899559
vn 0.70072853565216 -0.71153008937836 0.05200463160872
vn -0.54450780153275 -0.17981313169003 0.81925481557846
vn 0.08966096490622 -0.73329371213913 0.6739741563797
vn 0.1429888010025 0.94637840986252 -0.28969320654869
vn -0.17146819829941 -0.9830476641655 0.06493037939072
vn -0.90183597803116 -0.4111416041851 -0.13287004828453
vn 0.94030421972275 0.03036279976368 0.33897799253464
vn -0.61398476362228 -0.65568536520004 -0.43943071365356
vn 0.94560348987579 -0.32465890049934 -0.02075126953423
vn -0.0144107202068 0.95911985635757 -0.2826329767704
vn 0.96611100435257 -0.24016803503036 0.09459841996431
vn 0.99837154150009 -0.03013724461198 -0.04843574762344
vn -0.67964613437653 -0.46765285730362 0.56513887643814
vn -0.8180650472641 -0.06965574622154 0.57089203596115
vn 0.13119579851627 0.99117529392242 0.01895301043987
vn 0.02479312382638 -0.99911320209503 0.03403054177761
vn 0.77924054861069 -0.55811196565628 0.28512308001518
vn -0.65749800205231 -0.58740276098251 -0.47186267375946
# 87 normals

o SEC61B_M3_20161220_C01_006.czi_cell_seg.tiff_1
usemtl Mat
f 25//1 11//2 31//3
f 13//5 32//6 14//5
f 2//7 23//8 20//9
f 36//10 29//11 18//12
f 18//12 29//11 24//13
f 25//14 34//15 16//16
f 28//17 36//10 31//18
f 11//19 20//19 21//19
f 12//20 35//21 23//8
f 26//22 35//21 12//20
f 21//23 6//24 28//25
f 32//26 35//27 14//28
f 16//16 3//29 25//14
f 28//30 30//31 36//32
f 9//33 6//34 7//35
f 27//36 35//37 26//36
f 5//38 16//16 34//15
f 5//39 22//40 1//41
f 33//42 11//2 25//1
f 14//28 35//27 27//43
f 33//44 27//36 26//36
f 9//33 30//31 28//30
f 33//45 3//46 27//46
f 9//33 7//35 30//31
f 29//47 5//47 24//47
f 5//39 29//48 22//40
f 20//49 32//50 6//24
f 24//51 5//38 34//15
f 22//52 29//52 15//52
f 15//53 29//53 36//53
f 2//54 12//20 23//8
f 9//55 28//55 6//55
f 11//56 26//22 12//20
f 27//57 4//57 10//57
f 12//58 2//59 20//58
f 31//18 21//60 28//17
f 14//5 1//61 13//5
f 20//49 6//24 21//23
f 3//29 33//62 25//14
f 18//12 31//18 36//10
f 7//63 22//63 30//63
f 14//64 19//64 17//64
f 22//65 15//65 30//65
f 31//66 18//67 24//68
f 10//69 4//69 16//69
f 5//70 10//70 16//70
f 32//71 20//9 23//8
f 3//46 4//72 27//46
f 22//73 13//73 1//73
f 8//74 23//74 2//74
f 31//3 11//2 21//75
f 6//76 13//76 7//76
f 24//68 25//77 31//66
f 5//39 1//41 10//78
f 30//31 15//79 36//32
f 10//78 1//41 14//80
f 22//81 7//81 13//81
f 11//56 33//82 26//22
f 11//83 12//58 20//58
f 6//24 32//50 13//84
f 3//29 16//16 4//85
f 23//8 35//21 32//71
f 10//86 14//28 27//43
f 24//68 34//87 25//77

