# WaveFront *.obj file (generated by CINEMA 4D)

mtllib ./membrane_lowres.mtl

v 13.14267063140869 5.0438928604126 -26.42062950134277
v 13.22900390625 6.91877794265747 -25.53424453735352
v 24.99306488037109 11.2994441986084 -19.5565242767334
v 13.17166805267334 4.7125768661499 -20.10375022888184
v 17.14032363891602 6.80133104324341 -29.57818984985352
v 26.76432418823242 7.91453838348389 -20.48547744750977
v 18.60600090026855 11.28865337371826 -27.26925086975098
v 20.33215141296387 4.66591548919678 -23.33197402954102
v 14.57627773284912 10.12697982788086 -22.10678863525391
v 18.35605812072754 7.75990772247314 -18.62690162658691
v 15.27119922637939 6.30925226211548 -17.56417465209961
v 16.69140815734863 4.66505527496338 -17.14641189575195
v 25.90435600280762 8.16883087158203 -22.70883750915527
v 15.27023410797119 10.40175724029541 -25.96321868896484
v 28.94581031799316 5.1325478553772 -20.93149375915527
v 14.82657241821289 5.41747283935547 -16.84314918518066
v 21.02824783325195 4.65434885025024 -19.19160842895508
v 17.64965438842773 8.65297794342041 -19.06999015808105
v 17.33464241027832 11.30191230773926 -21.91434097290039
v 24.50105476379395 5.95653867721558 -24.20748710632324
v 21.82502555847168 7.34967660903931 -26.67522239685059
v 14.06047630310059 8.7184362411499 -27.16606521606445
v 18.0799388885498 10.43211936950684 -27.30192375183105
v 20.21405792236328 5.83565902709961 -28.11138916015625
v 17.64224815368652 10.2718391418457 -28.4192008972168
v 24.52579689025879 5.0711522102356 -19.0578784942627
v 14.33451080322266 6.8932933807373 -21.09212112426758
v 12.15619564056396 4.52964115142822 -23.10689544677734
v 14.72649574279785 5.45012664794922 -28.47733306884766
v 23.7741870880127 11.27283096313477 -26.3017635345459
v 25.1220531463623 4.72903823852539 -20.95607566833496
v 11.89622020721436 5.60296821594238 -22.90462303161621
# 32 vertices

vn 0.00247188936919 0.99999099969864 -0.00344610214233
vn 0.00393307395279 0.99998140335083 -0.00465612486005
vn 0 0 0
vn 0.21599309146404 -0.15168328583241 0.9645408987999
vn 0.4526606798172 0.38660582900047 -0.80351364612579
vn 0.5705281496048 0.10950748622417 -0.81394457817078
vn 0.46868568658829 0.33123004436493 -0.81891417503357
vn 0.02523203939199 0.99682152271271 0.07556573301554
vn -0.02055377885699 0.99957919120789 -0.020468050614
vn 0.85982722043991 0.46426269412041 -0.21250237524509
vn 0.78936988115311 0.5647531747818 -0.24072597920895
vn 0.82675659656525 0.51962488889694 -0.21555387973785
vn 0.16333632171154 -0.95734733343124 -0.23834294080734
vn 0.07488073408604 -0.98596674203873 -0.14920592308044
vn 0.05393565446138 -0.97672063112259 -0.20762397348881
vn -0.27107307314873 0.68924260139465 0.67191070318222
vn -0.20875307917595 0.70403796434402 0.67878764867783
vn -0.91587221622467 0.07564876228571 -0.3942783176899
vn -0.96390420198441 0.24306580424309 -0.10866320133209
vn -0.90349948406219 0.33859729766846 -0.26275557279587
vn -0.93707346916199 -0.16944624483585 -0.30525609850883
vn -0.94127422571182 0.02082545123994 -0.33700013160706
vn 0.60437655448914 0.14705727994442 -0.78300899267197
vn -0.91306060552597 0.40553185343742 0.04317731037736
vn 0.70904725790024 -0.17241269350052 -0.68375867605209
vn 0.69935297966003 -0.12009830027819 -0.70461469888687
vn 0.01811526529491 -0.98647820949554 -0.16288827359676
vn 0.19980682432652 0.30946850776672 0.92968082427979
vn 0.29391407966614 0.23391728103161 0.92676711082458
vn -0.47999811172485 0.83602005243301 0.26584267616272
vn -0.50204390287399 0.83534270524979 0.22395184636116
vn -0.57580184936523 0.78946977853775 0.21257868409157
vn 0.29183927178383 0.0777684673667 0.95330053567886
vn 0.07547972351313 -0.98758506774902 0.13776278495789
vn 0.04032573476434 -0.99690037965775 0.06755325198174
vn -0.83171933889389 0.51840281486511 -0.19874972105026
vn -0.08029006421566 0.3913254737854 0.91674309968948
vn -0.95966684818268 0.14695474505424 0.23967443406582
vn -0.37241274118423 0.90672117471695 -0.19790275394917
vn -0.09645606577396 -0.98888885974884 0.11311503499746
vn -0.3022712469101 -0.88841235637665 0.34547874331474
vn -0.19897122681141 -0.95465266704559 0.22146956622601
vn 0.75047069787979 0.62358140945435 -0.21895189583302
vn 0.10459197312593 -0.97249341011047 0.20812758803368
vn -0.57033205032349 0.14546930789948 0.80843061208725
vn -0.52388966083527 0.00819819327444 0.85174667835236
vn 0.93167418241501 -0.01350412890315 -0.36304393410683
vn -0.02023409307003 -0.99965906143188 -0.01650267653167
vn -0.47410708665848 0.28605848550797 -0.83270221948624
vn -0.50740051269531 0.22980464994907 -0.83050256967545
vn -0.80378991365433 0.46324589848518 0.37326258420944
vn -0.81912446022034 0.32133635878563 0.47516104578972
vn 0.1501722484827 -0.9151217341423 -0.37416645884514
vn 0.1812849342823 -0.92669385671616 -0.32920241355896
vn 0.09991665929556 -0.92441183328629 -0.36807525157928
vn -0.34358924627304 0.90754634141922 0.24146637320518
vn -0.79726374149323 0.07769896835089 -0.59860956668854
vn -0.43878555297852 0.34108865261078 -0.83133977651596
vn 0.09641187638044 -0.72652411460876 -0.68034362792969
vn -0.33226817846298 0.6715869307518 0.66224533319473
vn -0.48609334230423 0.71171593666077 -0.50712299346924
vn -0.60372716188431 0.27941259741783 0.74662041664124
vn -0.01474634092301 -0.19115279614925 0.98144954442978
vn 0.891262114048 0.42328852415085 -0.16272287070751
vn 0.58780521154404 0.13171836733818 -0.7982075214386
vn -0.77498829364777 0.62480372190475 -0.09493911266327
vn 0.10134921967983 -0.97303336858749 0.20720629394054
vn -0.76373338699341 0.59090751409531 0.25988382101059
vn 0.3287607729435 0.48922729492188 0.80781990289688
vn 0.34798029065132 0.50178599357605 0.79190939664841
vn 0.00101069605444 0.99999696016312 -0.00223606685176
vn 0.80595338344574 -0.11830373853445 -0.58003741502762
vn 0.36692830920219 0.5139531493187 0.77538102865219
vn -0.54228812456131 0.82849514484406 0.13971181213856
vn 0.15747748315334 -0.02020064368844 -0.98731595277786
vn 0.18401011824608 0.00214508315548 -0.98292201757431
vn 0.38373818993568 0.15495723485947 0.91034787893295
vn -0.06610679626465 0.9910152554512 -0.11627000570297
vn -0.90416306257248 -0.27982982993126 0.32277607917786
vn 0.13075232505798 -0.04252167418599 -0.99050277471542
# 80 normals

o TOMM20_Int_3500000518_100X_20170203_E05_P05.czi_cell_seg.tiff_1
usemtl Mat
f 3//1 30//2 7//1
f 10//4 6//4 3//4
f 23//5 21//6 5//7
f 9//8 23//9 14//9
f 3//10 6//11 13//12
f 24//13 8//14 29//15
f 19//16 18//16 3//17
f 1//18 2//19 22//20
f 1//18 28//21 32//22
f 20//23 13//23 15//23
f 2//19 9//24 22//20
f 30//25 20//26 21//6
f 29//15 8//14 1//27
f 1//18 32//22 2//19
f 10//28 26//29 6//29
f 11//30 27//31 32//32
f 10//33 11//33 17//33
f 8//14 31//34 17//35
f 23//36 19//36 7//36
f 18//37 10//37 3//37
f 2//19 27//38 9//24
f 9//39 19//39 23//39
f 8//14 17//35 12//40
f 16//41 4//42 12//40
f 6//11 15//43 13//12
f 17//35 31//34 26//44
f 18//45 27//45 10//46
f 25//47 23//47 5//47
f 28//48 12//40 4//42
f 22//49 5//49 29//50
f 11//51 32//52 4//51
f 31//53 20//54 15//55
f 11//30 10//56 27//31
f 1//18 22//20 29//57
f 25//58 5//49 22//49
f 5//59 24//59 29//59
f 19//16 9//60 18//16
f 25//61 22//61 14//61
f 1//27 8//14 28//48
f 27//45 18//45 9//62
f 17//63 26//63 10//63
f 3//10 13//12 30//64
f 21//6 24//65 5//7
f 22//20 9//24 14//66
f 15//67 26//44 31//34
f 11//51 4//51 16//68
f 16//69 12//70 11//70
f 21//6 20//26 24//65
f 8//14 20//54 31//53
f 24//13 20//54 8//14
f 19//71 3//1 7//1
f 30//25 13//72 20//26
f 17//73 11//70 12//70
f 2//74 32//32 27//31
f 7//75 30//76 21//75
f 6//29 26//29 15//77
f 14//9 23//9 25//78
f 4//79 32//79 28//79
f 8//14 12//40 28//48
f 7//75 21//75 23//80

