# WaveFront *.obj file (generated by CINEMA 4D)

mtllib ./membrane_lowres.mtl

v 51.42197036743164 12.82857036590576 -25.85016250610352
v 63.47766494750977 11.44906330108643 -8.52372741699219
v 48.93922805786133 7.15685939788818 -37.50510787963867
v 51.00674438476562 10.63075542449951 -30.97078323364258
v 59.17500686645508 6.028480052948 -25.00013160705566
v 63.85305404663086 11.62211894989014 -25.82898330688477
v 52.40385818481445 5.20214462280273 -37.42977142333984
v 51.35812377929688 5.14062738418579 -33.88059997558594
v 48.41946029663086 7.04367876052856 -22.87167167663574
v 60.90167617797852 10.38805866241455 -10.60896396636963
v 56.27460861206055 5.13161993026733 -23.22185707092285
v 54.57830047607422 8.78133106231689 -36.33615875244141
v 56.92135620117188 6.32552289962769 -37.17470169067383
v 44.99330902099609 5.21099376678467 -27.77536582946777
v 57.0399284362793 5.22516107559204 -33.20045852661133
v 60.58878326416016 8.34053611755371 -12.68390464782715
v 51.32334899902344 6.59118843078613 -16.34011459350586
v 58.16613006591797 5.21437215805054 -29.3889217376709
v 63.68952941894531 11.05277061462402 -17.23542213439941
v 51.22793579101562 11.52279472351074 -26.32024192810059
v 61.4233283996582 10.81150722503662 -28.01850700378418
v 46.01191329956055 5.15467309951782 -34.06600570678711
v 49.51922988891602 8.0538911819458 -32.40972137451172
v 62.20006942749023 6.42591714859009 -20.89948463439941
v 51.85751342773438 5.71717739105225 -23.36777305603027
v 52.20393371582031 9.66367816925049 -14.64224147796631
v 46.55564498901367 6.96347188949585 -28.78043937683105
v 58.73195266723633 8.30028343200684 -33.66592788696289
v 62.99211120605469 12.79719257354736 -12.47732067108154
v 59.46516799926758 6.39485549926758 -13.7487268447876
v 46.6247444152832 6.54878997802734 -37.05910491943359
v 53.43548202514648 12.80556106567383 -14.56743049621582
# 32 vertices

vn -0.49079632759094 0.17204393446445 0.85411936044693
vn 0 0 0
vn -0.03594928234816 0.98507744073868 0.16831533610821
vn 0.00868419650942 0.99633252620697 0.08512365818024
vn 0.04852978512645 0.99803459644318 -0.0396460480988
vn -0.90108972787857 0.42709392309189 0.0750205218792
vn -0.85869467258453 0.49010846018791 0.1497904509306
vn -0.96218073368073 0.22305342555046 0.15638241171837
vn 0.090415969491 0.82211399078369 0.56209743022919
vn 0.44511535763741 0.69258570671082 -0.56762427091599
vn 0.1800482571125 0.88165688514709 -0.43619227409363
vn 0.33789417147636 0.77294546365738 -0.53701287508011
vn -0.27241623401642 -0.53651535511017 0.79871189594269
vn -0.27116471529007 -0.5126639008522 0.81464433670044
vn -0.25935339927673 -0.68372893333435 0.68209272623062
vn -0.00039698628825 0.98209965229034 -0.18836164474487
vn 0.07311221212149 0.92782336473465 -0.36578461527824
vn 0.05953944474459 0.9483163356781 -0.31169080734253
vn -0.19471654295921 -0.89298069477081 0.40579664707184
vn -0.25191661715508 -0.83553582429886 0.48828050494194
vn -0.08012553304434 -0.98259204626083 0.16760884225368
vn 0.00778453331441 -0.99996960163116 0.00050055247266
vn 0.09426418691874 -0.99086266756058 -0.09646493196487
vn 0.09170517325401 -0.99554944038391 0.02171325683594
vn 0.87162125110626 -0.45393627882004 -0.18498168885708
vn 0.87970167398453 -0.4331793487072 -0.19616475701332
vn 0.84406495094299 -0.49547305703163 -0.20508727431297
vn 0.06377132236958 -0.87380081415176 -0.48208436369896
vn 0.1148698553443 -0.83356124162674 -0.54035228490829
vn 0.94737410545349 0.31938767433167 0.02176688984036
vn 0.93454569578171 0.3557830452919 0.00654325308278
vn 0.88725399971008 -0.41694778203964 0.19731928408146
vn 0.84161710739136 -0.44245678186417 0.30969762802124
vn 0.8106295466423 -0.50798904895782 0.29125052690506
vn 0.86201405525208 -0.46984702348709 0.19019873440266
vn 0.75381898880005 -0.59170162677765 0.28573775291443
vn 0.95237052440643 -0.30493611097336 -0.00208049756475
vn -0.27582350373268 -0.37023487687111 0.88704425096512
vn 0.06311244517565 0.21899801492691 -0.97368204593658
vn 0.07845333963633 0.38836044073105 -0.91816186904907
vn 0.13361030817032 -0.98093467950821 -0.14112201333046
vn -0.93425315618515 0.35568931698799 -0.02561454847455
vn -0.86658406257629 0.492665797472 -0.07945109158754
vn -0.81601101160049 0.57783001661301 0.01544132549316
vn -0.91224330663681 0.03595114126801 0.40806815028191
vn -0.26286080479622 0.9635134935379 -0.05045682191849
vn -0.33003580570221 0.94355058670044 -0.02808392234147
vn -0.32293546199799 0.94122660160065 -0.0990209504962
vn -0.25079116225243 -0.70171469449997 0.66685855388641
vn -0.98104584217072 0.08269213885069 0.17524567246437
vn -0.73563385009766 0.67642575502396 0.03593179956079
vn -0.34722122550011 -0.93348318338394 0.08970291167498
vn -0.12165001779795 -0.98925739526749 0.08106227219105
vn -0.20665426552296 -0.97273457050323 0.10526883602142
vn 0.34606257081032 -0.93352925777435 0.09361555427313
vn 0.07214227318764 -0.9879692196846 0.13679295778275
vn -0.2868170440197 -0.39906597137451 0.87090891599655
vn -0.07129517197609 0.94137144088745 0.32975268363953
vn 0.06460943073034 0.9559029340744 -0.28648766875267
vn -0.85580265522003 0.51458066701889 -0.05299558490515
vn -0.8495968580246 0.5239971280098 -0.06010103970766
vn -0.53243410587311 0.62569934129715 -0.57010018825531
vn -0.82488238811493 0.56226760149002 0.05851695686579
vn 0.24675470590591 -0.93202322721481 -0.26541432738304
vn 0.03402416780591 0.33404380083084 -0.94194322824478
vn 0.0697293356061 -0.99709439277649 0.03066978789866
vn 0.08999325335026 -0.99548757076263 0.0300948806107
vn 0.02600741945207 -0.99785107374191 0.06014034152031
vn 0.79445415735245 -0.53149950504303 -0.29385510087013
vn 0.95857214927673 0.28244268894196 0.03695306926966
vn -0.26663455367088 0.96117466688156 0.07105792313814
vn -0.32535195350647 0.94378232955933 -0.05848917737603
vn 0.85391801595688 -0.4944286942482 -0.16237090528011
vn -0.24703015387058 0.95874363183975 -0.14066559076309
vn 0.0964160785079 0.99203234910965 -0.08109119534492
vn 0.3447573184967 -0.93730419874191 0.05102206766605
vn 0.44896423816681 -0.8584440946579 -0.24800166487694
vn -0.0029211982619 -0.99995976686478 0.00847971905023
vn 0.46340441703796 0.64837872982025 -0.6040375828743
vn 0.91912800073624 -0.36700907349586 -0.14320622384548
vn 0.04575186595321 0.04262732341886 -0.99804294109344
vn 0.01218650396913 -0.90737730264664 -0.42014038562775
vn -0.48268002271652 -0.86158192157745 -0.15715138614178
vn -0.6707107424736 0.71371799707413 0.2018755376339
# 84 normals

o ST6GAL1_Int_20170731_C01_001-Scene-10-P10-F02.czi_cell_seg.tiff_1
usemtl Mat
f 26//1 2//1 32//1
f 32//3 29//4 1//5
f 20//6 26//7 32//8
f 5//9 25//9 11//9
f 12//10 21//11 28//12
f 26//13 16//14 10//15
f 20//16 6//17 4//18
f 25//19 9//20 14//21
f 8//22 15//23 18//24
f 28//25 18//26 15//27
f 31//28 3//29 8//28
f 29//30 2//31 19//30
f 6//17 28//12 21//11
f 4//18 6//17 21//11
f 19//32 10//33 16//34
f 24//35 16//34 30//36
f 24//35 6//37 19//32
f 30//38 16//14 26//13
f 3//39 12//40 13//39
f 7//41 15//23 8//22
f 31//42 22//43 27//44
f 17//45 26//45 9//45
f 31//46 27//47 3//48
f 26//13 10//15 2//49
f 32//8 1//50 20//6
f 22//43 14//51 27//44
f 9//52 25//53 17//54
f 18//24 5//55 11//56
f 19//32 16//34 24//35
f 26//13 17//57 30//38
f 29//4 32//3 2//58
f 8//22 18//24 14//21
f 4//18 21//11 12//59
f 23//60 20//6 4//61
f 4//62 12//62 23//62
f 9//63 26//7 20//6
f 7//41 13//64 15//23
f 1//65 6//65 20//65
f 14//21 11//56 25//19
f 5//66 24//67 30//68
f 28//69 6//69 24//69
f 29//30 19//30 6//70
f 23//60 9//63 20//6
f 9//71 23//72 27//47
f 13//73 28//25 15//27
f 23//72 12//74 3//48
f 14//21 18//24 11//56
f 27//47 23//72 3//48
f 29//4 6//75 1//5
f 10//76 19//76 2//76
f 28//77 24//77 5//77
f 25//53 30//68 17//54
f 22//78 8//22 14//21
f 12//10 28//12 13//79
f 5//66 30//68 25//53
f 28//25 5//80 18//26
f 13//39 7//81 3//39
f 31//28 8//28 22//82
f 7//83 8//83 3//83
f 27//44 14//51 9//84

