# WaveFront *.obj file (generated by CINEMA 4D)

mtllib ./membrane_lowres.mtl

v 44.35803604125977 8.8088264465332 -38.7624397277832
v 52.54074859619141 14.22283363342285 -37.9986686706543
v 43.01476287841797 3.43677115440369 -47.30966186523438
v 43.38498306274414 14.89693832397461 -46.27073287963867
v 45.39593887329102 8.87925720214844 -21.9378490447998
v 43.09604644775391 6.25180149078369 -42.48992538452148
v 42.50383758544922 3.32646346092224 -28.81897354125977
v 43.82130813598633 11.302659034729 -39.96504974365234
v 38.82909774780273 12.17426681518555 -23.4837818145752
v 50.18461990356445 13.21139144897461 -31.80859565734863
v 57.51845550537109 8.54843044281006 -48.52984237670898
v 48.01677322387695 3.5350513458252 -36.0332145690918
v 39.80324554443359 5.32178735733032 -34.75287628173828
v 53.9638557434082 4.04870510101318 -43.28671646118164
v 45.73561477661133 2.75053453445435 -43.42682647705078
v 47.41883087158203 7.52303743362427 -50.43953323364258
v 43.62114715576172 10.39608287811279 -37.08396911621094
v 36.32028579711914 10.45076179504395 -28.22647857666016
v 40.70458221435547 9.5130033493042 -36.9783821105957
v 46.13151931762695 14.67386341094971 -37.00014877319336
v 49.65300369262695 3.76449489593506 -32.44844818115234
v 36.11154937744141 10.3920783996582 -28.15947914123535
v 37.588623046875 7.05698728561401 -28.51194381713867
v 34.25565338134766 14.55832004547119 -33.13631820678711
v 55.53648376464844 14.52743148803711 -46.09694290161133
v 48.88314819335938 3.64409136772156 -47.31434631347656
v 49.29619216918945 13.90135765075684 -51.90096664428711
v 51.60266876220703 6.51228189468384 -27.41755867004395
v 49.57236480712891 14.23800468444824 -25.25364303588867
v 45.88598251342773 11.71532821655273 -51.03670501708984
v 54.84029769897461 6.19820833206177 -38.89622497558594
v 52.4050407409668 9.2227783203125 -53.83283233642578
v 36.26300048828125 10.43846035003662 -28.31583213806152
# 33 vertices

vn -0.23897212743759 -0.94804054498672 -0.21002735197544
vn 0 0 0
vn -0.8621346950531 0.07330133020878 -0.50134885311127
vn -0.20636919140816 -0.27598103880882 -0.93874716758728
vn -0.44787794351578 -0.56904941797256 0.68962895870209
vn -0.43495109677315 -0.59013015031815 0.68012052774429
vn -0.9482456445694 -0.27804324030876 -0.1533692330122
vn 0.2509705722332 -0.88714480400085 0.38728269934654
vn 0.22346493601799 -0.84891641139984 0.47896176576614
vn 0.92326718568802 0.20415824651718 0.32541832327843
vn 0.93411463499069 0.18556030094624 0.3049544095993
vn -0.42171904444695 -0.61079657077789 0.67013478279114
vn 0.64634549617767 -0.39212733507156 0.65457898378372
vn -0.14564241468906 -0.62412768602371 0.76762807369232
vn 0.91729885339737 0.0412869118154 -0.39605325460434
vn 0.89904594421387 0.12846972048283 -0.41858318448067
vn -0.17710398137569 0.18215563893318 -0.96718847751617
vn -0.2970095872879 0.30851110816002 -0.90366268157959
vn -0.68979847431183 -0.62005203962326 0.37378281354904
vn -0.630874812603 -0.60544735193253 0.48521184921265
vn 0.05534804984927 0.99761819839478 0.04116431251168
vn 0.08044834434986 0.99449330568314 0.06716523319483
vn 0.04777814820409 0.99866282939911 -0.01974243298173
vn 0.14646963775158 -0.95374643802643 -0.26251545548439
vn 0.16976004838943 -0.89206546545029 -0.41880866885185
vn 0.0321077927947 0.98945277929306 -0.14125244319439
vn 0.03123736940324 0.99750769138336 -0.06326607614756
vn 0.09588380903006 -0.98423832654953 -0.14859740436077
vn 0.03445499390364 -0.97973775863647 -0.19729880988598
vn -0.99430644512177 0.10644967108965 -0.00481550162658
vn -0.99624502658844 0.02465995401144 0.0829920321703
vn -0.76846116781235 -0.34830212593079 0.53679895401001
vn -0.77448064088821 -0.33460041880608 0.53686338663101
vn -0.7666517496109 -0.35542926192284 0.53471034765244
vn -0.76411610841751 -0.35481947660446 0.53872966766357
vn 0.11549909412861 -0.48510137200356 -0.86679673194885
vn -0.42610913515091 -0.27841240167618 -0.86076563596725
vn -0.46880060434341 -0.29024574160576 -0.83425617218018
vn 0.51389622688293 0.59617751836777 -0.61683303117752
vn 0.5940768122673 0.5307754278183 -0.60444211959839
vn -0.89226710796356 0.0842644944787 0.44357514381409
vn -0.93864613771439 -0.03664528205991 0.34292942285538
vn -0.56179296970367 -0.58109390735626 0.58882814645767
vn -0.13282458484173 0.9457448720932 0.29652020335197
vn -0.06608036905527 0.98350727558136 0.16836497187614
vn -0.97804635763168 0.18670612573624 -0.09255367517471
vn -0.94027155637741 0.0218171197921 -0.33972543478012
vn -0.0511098317802 0.04953794181347 -0.99746364355087
vn 0.07587251067162 -0.99669098854065 0.02916212379932
vn 0.4461025595665 0.88963711261749 -0.0976642742753
vn 0.83386772871017 -0.54294800758362 0.09935837984085
vn -0.33715713024139 0.1591119915247 -0.92790538072586
vn -0.38228195905685 -0.26583698391914 -0.88498091697693
vn 0.67293959856033 -0.38250216841698 -0.63312274217606
vn 0.15672147274017 -0.982670545578 -0.0989797860384
vn -0.87916380167007 0.43856257200241 0.18637043237686
vn -0.88847988843918 0.36953517794609 0.27211618423462
vn 0.9116051197052 0.22257608175278 0.34559509158134
vn 0.04669079184532 0.49903911352158 0.86532074213028
vn 0.04723830893636 -0.1715991050005 0.98403370380402
vn 0.14893370866776 -0.06766486912966 0.98652935028076
vn -0.0554562099278 -0.27190393209457 0.96072518825531
vn 0.00213773851283 0.99933302402496 0.03645445033908
vn 0.92780828475952 -0.04624443128705 -0.37017998099327
vn 0.18816569447517 -0.80471575260162 -0.56305080652237
vn 0.5982232093811 -0.35354807972908 -0.71911936998367
vn 0.19358539581299 -0.80167001485825 0.56555277109146
vn -0.92718255519867 -0.36764797568321 0.0718847438693
vn -0.7011194229126 -0.57307714223862 -0.42428067326546
vn -0.60426896810532 -0.79674881696701 0.00709684193134
vn 0.96934974193573 0.23990741372108 0.05296715721488
vn 0.54857283830643 0.22826856374741 -0.80433905124664
vn -0.52124625444412 0.55778753757477 -0.64589112997055
vn -0.85911840200424 0.50223779678345 0.0983501970768
vn 0.1349930614233 -0.90029442310333 0.41381973028183
vn 0.65258818864822 -0.04042837768793 0.7566334605217
vn 0.66780573129654 0.45960906147957 -0.58548694849014
vn 0.02136175148189 -0.62234252691269 -0.78245347738266
vn 0.260339230299 -0.96491611003876 -0.03406411781907
# 79 normals

vt 0.47405326366425 0.12708735466003 0
vt 0.47410786151886 0.13854908943176 0
vt 0.46694034337997 0.13235700130463 0
vt 0.62083888053894 0.73073863983154 0
vt 0.6312010884285 0.7185360789299 0
vt 0.6300733089447 0.7333750128746 0
vt 0.07427071779966 0.54971647262573 0
vt 0.07088596373796 0.55782133340836 0
vt 0.06595326960087 0.54830181598663 0
vt 0.4053427875042 0.31863594055176 0
vt 0.39181351661682 0.32273006439209 0
vt 0.39168781042099 0.31286144256592 0
vt 0.75722396373749 0.22549057006836 0
vt 0.74592471122742 0.22625935077667 0
vt 0.74527364969254 0.22017693519592 0
vt 0.65511602163315 0.60199910402298 0
vt 0.6639032959938 0.603406727314 0
vt 0.65604370832443 0.6109601855278 0
vt 0.40006026625633 0.14952623844147 0
vt 0.41291201114655 0.1496080160141 0
vt 0.40040785074234 0.15681755542755 0
vt 0.37055891752243 0.83016055822372 0
vt 0.37515985965729 0.82361197471619 0
vt 0.38053384423256 0.83568316698074 0
vt 0.38376468420029 0.40060257911682 0
vt 0.38518241047859 0.40983164310455 0
vt 0.37519431114197 0.40449404716492 0
vt 0.62974613904953 0.76900219917297 0
vt 0.62960892915726 0.78886729478836 0
vt 0.6247832775116 0.7781874537468 0
vt 0.76401495933533 0.94190138578415 0
vt 0.75791221857071 0.95266896486282 0
vt 0.75673377513886 0.94189870357513 0
vt 0.00795322097838 0.25322031974792 0
vt 0.00329551496543 0.24092745780945 0
vt 0.00799387507141 0.2373034954071 0
vt 0.67361462116241 0.6326819062233 0
vt 0.67029690742493 0.62970978021622 0
vt 0.67353755235672 0.62299674749374 0
vt 0.51651871204376 0.8872377872467 0
vt 0.51985311508179 0.89469707012177 0
vt 0.51455098390579 0.8993324637413 0
vt 0.832310795784 0.57112473249435 0
vt 0.82309418916702 0.56918495893478 0
vt 0.83230423927307 0.5602098107338 0
vt 0.96153962612152 0.3328685760498 0
vt 0.95689833164215 0.32865178585052 0
vt 0.95683485269547 0.32339429855347 0
vt 0.87237101793289 0.86295628547668 0
vt 0.87718635797501 0.86794012784958 0
vt 0.87448334693909 0.87072670459747 0
vt 0.01763078384101 0.10217940807343 0
vt 0.02042506076396 0.10715091228485 0
vt 0.00528836995363 0.1071469783783 0
vt 0.15645384788513 0.24937880039215 0
vt 0.16277731955051 0.25618934631348 0
vt 0.15616908669472 0.25838363170624 0
vt 0.52484291791916 0.63358551263809 0
vt 0.53433984518051 0.63996517658234 0
vt 0.52193981409073 0.64764750003815 0
vt 0.88662558794022 0.63774704933166 0
vt 0.87779414653778 0.63771617412567 0
vt 0.88242894411087 0.62897539138794 0
vt 0.7096980214119 0.75400805473328 0
vt 0.70981019735336 0.73791122436523 0
vt 0.71969103813171 0.75329494476318 0
vt 0.28480491042137 0.21603155136108 0
vt 0.29150903224945 0.22593653202057 0
vt 0.28679317235947 0.22463524341583 0
vt 0.92992055416107 0.44255685806274 0
vt 0.92995029687881 0.44878971576691 0
vt 0.92621833086014 0.44757676124573 0
vt 0.41978752613068 0.75917017459869 0
vt 0.41269934177399 0.76647806167603 0
vt 0.41639348864555 0.73636662960052 0
vt 0.44663462042809 0.37058734893799 0
vt 0.45515242218971 0.37170016765594 0
vt 0.44847270846367 0.37556135654449 0
vt 0.30562400817871 0.51362836360931 0
vt 0.30544090270996 0.5078199505806 0
vt 0.3113449215889 0.51648133993149 0
vt 0.39709562063217 0.29629337787628 0
vt 0.39518427848816 0.30416572093964 0
vt 0.37800893187523 0.30496525764465 0
vt 0.85152840614319 0.51230603456497 0
vt 0.8452313542366 0.51198494434357 0
vt 0.8453249335289 0.49793481826782 0
vt 0.01918090507388 0.15832698345184 0
vt 0.01295156497508 0.15972173213959 0
vt 0.01490838639438 0.15348398685455 0
vt 0.87613141536713 0.23896872997284 0
vt 0.88331365585327 0.24944961071014 0
vt 0.87609356641769 0.24850034713745 0
vt 0.61178994178772 0.27080261707306 0
vt 0.61648309230804 0.27393198013306 0
vt 0.61243897676468 0.28391695022583 0
vt 0.60681915283203 0.48022425174713 0
vt 0.61631840467453 0.47509157657623 0
vt 0.61361533403397 0.48463046550751 0
vt 0.65196520090103 0.88964951038361 0
vt 0.65666353702545 0.8805193901062 0
vt 0.65630787611008 0.89390063285828 0
vt 0.37954312562943 0.71729737520218 0
vt 0.3858916759491 0.7500913143158 0
vt 0.37858700752258 0.72852754592896 0
vt 0.41488918662071 0.47583198547363 0
vt 0.41674861311913 0.48571765422821 0
vt 0.40969753265381 0.48924791812897 0
vt 0.15481308102608 0.97457736730576 0
vt 0.14177152514458 0.975605905056 0
vt 0.12547898292542 0.9497936964035 0
vt 0.64945489168167 0.45048260688782 0
vt 0.6467057466507 0.46625196933746 0
vt 0.64143025875092 0.43923938274384 0
vt 0.76961427927017 0.17642378807068 0
vt 0.76959073543549 0.15948224067688 0
vt 0.77536463737488 0.16989278793335 0
vt 0.52239316701889 0.7977420091629 0
vt 0.52819168567657 0.80514645576477 0
vt 0.52417260408401 0.81261622905731 0
vt 0.77040857076645 0.95783990621567 0
vt 0.77603513002396 0.95780092477798 0
vt 0.77587687969208 0.96622824668884 0
vt 0.54209530353546 0.83074724674225 0
vt 0.54438310861588 0.82455861568451 0
vt 0.55586171150208 0.82904863357544 0
vt 0.32426646351814 0.3941901922226 0
vt 0.32624861598015 0.38428699970245 0
vt 0.33810764551163 0.38037765026093 0
vt 0.92772156000137 0.76510214805603 0
vt 0.93246823549271 0.77029967308044 0
vt 0.92775630950928 0.77811145782471 0
vt 0.30288216471672 0.35442721843719 0
vt 0.2970287501812 0.36435627937317 0
vt 0.2914901971817 0.35628032684326 0
vt 0.82835692167282 0.01375186443329 0
vt 0.83498817682266 0.01379358768463 0
vt 0.83011984825134 0.01832604408264 0
vt 0.30013832449913 0.96036660671234 0
vt 0.29020217061043 0.94893741607666 0
vt 0.30450746417046 0.94996947050095 0
vt 0.02198273874819 0.37898409366608 0
vt 0.01786822639406 0.38801681995392 0
vt 0.00319679500535 0.37902736663818 0
vt 0.43033051490784 0.88089686632156 0
vt 0.441964417696 0.88116991519928 0
vt 0.43595173954964 0.88698023557663 0
vt 0.11714383214712 0.25151038169861 0
vt 0.11997450143099 0.25692367553711 0
vt 0.10917884856462 0.25838363170624 0
vt 0.44468775391579 0.89956665039062 0
vt 0.4445236325264 0.91331332921982 0
vt 0.43050244450569 0.91610729694366 0
vt 0.97150301933289 0.94089865684509 0
vt 0.96545517444611 0.94306820631027 0
vt 0.96551102399826 0.93498283624649 0
vt 0.71435755491257 0.70141798257828 0
vt 0.71959972381592 0.71494948863983 0
vt 0.71613126993179 0.73149883747101 0
vt 0.39692232012749 0.01162993907928 0
vt 0.39166721701622 0.00870704650879 0
vt 0.39693748950958 0.00776028633118 0
vt 0.3815421462059 0.12714338302612 0
vt 0.37970104813576 0.11798202991486 0
vt 0.38843244314194 0.1179883480072 0
vt 0.61504399776459 0.19551277160645 0
vt 0.60733169317245 0.19505977630615 0
vt 0.60588097572327 0.18705677986145 0
vt 0.77573186159134 0.98243772983551 0
vt 0.77407348155975 0.99140548706055 0
vt 0.76937437057495 0.98239612579346 0
vt 0.37765225768089 0.51860255002975 0
vt 0.37726691365242 0.50754088163376 0
vt 0.39088517427444 0.50932055711746 0
vt 0.73279064893723 0.93884408473968 0
vt 0.73649734258652 0.94903564453125 0
vt 0.73058420419693 0.96077209711075 0
vt 0.25144430994987 0.22540998458862 0
vt 0.24990957975388 0.23703849315643 0
vt 0.24426917731762 0.22951185703278 0
vt 0.85063636302948 0.1707136631012 0
vt 0.85472077131271 0.1645120382309 0
vt 0.85390794277191 0.1781485080719 0
# 183 texture coordinates

o TOMM20_M7_20170203_C01_011.czi_cell_seg.tiff_1
usemtl Mat
f 13/1/1 12/2/1 7/3/1
f 4/4/3 30/5/3 3/6/3
f 17/7/4 12/8/4 13/9/4
f 9/10/5 23/11/6 5/12/6
f 1/13/7 17/14/7 8/15/7
f 21/16/8 28/17/9 7/18/9
f 31/19/10 11/20/11 25/21/10
f 7/22/12 5/23/6 23/24/6
f 20/25/13 17/26/13 1/27/13
f 15/28/14 31/29/14 1/30/14
f 28/31/15 21/32/16 12/33/15
f 19/34/17 24/35/18 20/36/17
f 3/37/19 15/38/20 6/39/20
f 20/40/21 2/41/22 25/42/23
f 32/43/24 11/44/25 16/45/25
f 25/46/23 27/47/26 4/48/27
f 26/49/28 15/50/28 3/51/29
f 3/52/30 8/53/30 4/54/31
f 18/55/32 23/56/33 9/57/34
f 23/58/33 18/59/32 33/60/35
f 17/61/36 13/62/36 19/63/36
f 16/64/37 30/65/37 32/66/38
f 27/67/39 25/68/40 32/69/40
f 33/70/41 9/71/41 24/72/41
f 6/73/42 1/74/42 8/75/42
f 1/76/43 6/77/20 15/78/20
f 9/79/44 29/80/45 24/81/45
f 3/82/30 6/83/46 8/84/30
f 13/85/47 23/86/47 19/87/47
f 20/88/17 17/89/48 19/90/17
f 12/91/49 21/92/49 7/93/49
f 29/94/50 10/95/50 20/96/50
f 11/97/51 31/98/51 14/99/51
f 27/100/52 32/101/52 30/102/52
f 30/103/37 16/104/37 3/105/53
f 17/106/54 20/107/54 10/108/54
f 15/109/28 26/110/28 14/111/55
f 8/112/56 20/113/56 4/114/57
f 2/115/58 31/116/10 25/117/10
f 5/118/59 29/119/59 9/120/59
f 20/121/60 31/122/60 2/123/61
f 1/124/62 31/125/60 20/126/60
f 29/127/45 20/128/63 24/129/45
f 12/130/15 10/131/64 28/132/15
f 16/133/25 11/134/25 14/135/65
f 26/136/66 16/137/66 14/138/66
f 7/139/9 28/140/9 5/141/67
f 4/142/27 20/143/21 25/144/23
f 24/145/68 23/146/68 33/147/68
f 24/148/69 19/149/69 23/150/69
f 13/151/70 7/152/70 23/153/70
f 10/154/71 29/155/71 28/156/71
f 10/157/72 12/158/72 17/159/72
f 27/160/73 30/161/73 4/162/73
f 17/163/74 20/164/56 8/165/56
f 18/166/32 9/167/34 33/168/35
f 15/169/75 14/170/75 31/171/75
f 5/172/76 28/173/76 29/174/76
f 25/175/40 11/176/77 32/177/40
f 16/178/78 26/179/78 3/180/78
f 33/181/79 18/182/79 22/183/79

