# WaveFront *.obj file (generated by CINEMA 4D)

mtllib ./membrane_lowres.mtl

v 34.57718276977539 3.80090427398682 -32.14194488525391
v 42.18609619140625 8.86532974243164 -14.64798736572266
v 38.12429046630859 2.81319189071655 -31.06168556213379
v 28.30792999267578 9.90107727050781 -11.49012756347656
v 26.56885147094727 3.97633051872253 -25.37424087524414
v 33.63843154907227 0.12241699546576 -13.24691963195801
v 39.95629501342773 3.3198127746582 -12.26294422149658
v 24.38211441040039 9.42538738250732 -27.04120635986328
v 46.57487487792969 0.15145955979824 -14.64216041564941
v 36.08941650390625 0.48633632063866 -10.48620796203613
v 19.11570930480957 9.01313877105713 -22.67490577697754
v 33.5743293762207 9.57852363586426 -29.63851928710938
v 21.34104347229004 0.03277827426791 -17.0137939453125
v 38.7888298034668 0.29060339927673 -26.95620346069336
v 42.21973037719727 9.98116207122803 -22.4870662689209
v 39.83761596679688 6.73289442062378 -27.64750862121582
v 21.08805847167969 0.09513727575541 -21.7867603302002
v 32.77326965332031 0.16490200161934 -22.94969177246094
v 37.61409378051758 8.03793525695801 -31.92411804199219
v 23.80469703674316 9.19949054718018 -17.68868446350098
v 33.53540420532227 1.0944995880127 -27.10881423950195
v 28.17583274841309 -0.10109832137823 -19.09832763671875
v 33.43109512329102 9.91434669494629 -10.24782466888428
v 40.576904296875 0.21030642092228 -19.17049407958984
v 27.06243133544922 0.80219960212708 -13.641432762146
v 32.64567947387695 0.50625592470169 -19.61602783203125
v 20.60022163391113 2.98130774497986 -21.83696556091309
v 46.56469345092773 0.78975391387939 -22.5438289642334
v 28.23806381225586 0.06463484466076 -25.88150024414062
# 29 vertices

vn 0.89755517244339 0.43799719214439 0.05052955448627
vn 0.90365213155746 0.42696866393089 0.03332602605224
vn 0 0 0
vn -0.11663246154785 0.99303328990936 0.01678450778127
vn -0.06683356314898 0.9977605342865 -0.00267862272449
vn -0.07067186385393 0.99748975038528 -0.00443269731477
vn -0.42774078249931 -0.35193917155266 -0.83257234096527
vn -0.51061749458313 -0.25863847136497 -0.81998527050018
vn -0.60550129413605 -0.25380721688271 -0.75428777933121
vn 0.25459936261177 -0.13324329257011 -0.95782327651978
vn 0.03720169514418 -0.99907511472702 0.02156315371394
vn 0.0024555453565 -0.99943125247955 -0.0336321182549
vn -0.02603886462748 -0.99795824289322 0.05832109972835
vn 0.19365081191063 -0.79929447174072 -0.56888288259506
vn -0.28159949183464 -0.15579788386822 0.94679921865463
vn -0.230712890625 -0.19386413693428 0.95351362228394
vn 0.41603577136993 0.16056007146835 0.89506131410599
vn 0.438959389925 0.20021653175354 0.87591552734375
vn 0.41426721215248 0.13486178219318 0.90010833740234
vn 0.89088314771652 0.03339343890548 -0.45300340652466
vn 0.89251697063446 0.06148681044579 -0.44680288434029
vn 0.92672741413116 -0.08661722391844 -0.36561426520348
vn -0.61986541748047 0.22200857102871 0.75264805555344
vn -0.51734614372253 0.20029802620411 0.83200579881668
vn 0.09159363806248 -0.98994106054306 -0.10783018171787
vn 0.02665201388299 -0.9986664056778 -0.04421636089683
vn 0.03493995591998 -0.99810576438904 0.05063645914197
vn 0.94667989015579 -0.18259960412979 -0.26543280482292
vn 0.09615796804428 -0.46141809225082 0.88195633888245
vn 0.89105004072189 0.44882649183273 0.06771010905504
vn -0.29179486632347 -0.32095521688461 -0.90102356672287
vn -0.28689783811569 -0.12161716073751 -0.95020991563797
vn -0.35122838616371 -0.22973419725895 -0.90766781568527
vn -0.96947884559631 -0.06596108525991 -0.23613524436951
vn -0.04201016947627 -0.9784015417099 -0.2023995667696
vn 0.01228225696832 -0.99991863965988 0.00344264134765
vn -0.06126821786165 0.99791449308395 0.02032054960728
vn -0.7116739153862 0.23988299071789 0.660285115242
vn 0.3671236038208 0.08008247613907 0.9267184138298
vn -0.05223440006375 -0.93052971363068 -0.36247205734253
vn -0.09372206777334 -0.86864691972733 -0.48648601770401
vn -0.10490306466818 -0.86170476675034 -0.49644756317139
vn -0.06397270411253 -0.98158007860184 0.18002234399319
vn 0.00465310970321 -0.99684172868729 0.0792775824666
vn 0.8313439488411 0.20866091549397 -0.51509982347488
vn 0.74354535341263 0.35498836636543 -0.56667768955231
vn -0.49511694908142 -0.09870298951864 -0.86320155858994
vn -0.92045032978058 -0.39044559001923 -0.01798426732421
vn 0.065649099648 -0.99634695053101 -0.05461592972279
vn -0.80713587999344 -0.02893151342869 0.58965641260147
vn -0.97112601995468 -0.23854370415211 0.00333354994655
vn -0.97896546125412 -0.20226968824863 0.02671289630234
vn -0.98492151498795 -0.16560652852058 0.05004085227847
vn 0.41870644688606 0.21147388219833 0.88315552473068
vn -0.02318935841322 -0.99966108798981 -0.01183149125427
vn -0.33133611083031 -0.11709540337324 0.93621850013733
vn -0.23072274029255 0.02767301164567 -0.97262597084045
vn 0.09222637861967 0.99315708875656 0.07164677232504
vn 0.06673168390989 0.99696880578995 -0.04000116884708
vn 0.49450126290321 -0.17192952334881 -0.85200279951096
vn -0.374362885952 0.31319659948349 -0.87278878688812
vn 0.08647767454386 0.98333692550659 -0.1599063873291
vn -0.11365377902985 -0.96691942214966 0.22836297750473
vn 0.46741405129433 -0.82952833175659 -0.30562534928322
vn 0.18650588393211 0.97253769636154 0.13923351466656
vn 0.19460336863995 0.93763464689255 -0.28804650902748
# 66 normals

o TUBA1B_M3_3500000722_100X_20170317_E04_P02.czi_cell_seg.tiff_1
usemtl Mat
f 9//1 28//2 15//1
f 20//4 4//5 8//6
f 8//7 27//8 11//9
f 3//10 1//10 19//10
f 26//11 9//12 6//13
f 5//14 22//14 17//14
f 23//15 4//16 25//15
f 7//17 2//18 23//19
f 19//20 16//21 3//22
f 20//23 13//23 25//24
f 29//25 18//26 22//27
f 16//21 14//28 3//22
f 22//27 18//26 26//11
f 7//29 6//29 9//29
f 2//30 9//1 15//1
f 12//31 21//32 5//33
f 21//34 12//34 1//34
f 14//35 24//36 18//26
f 20//4 8//6 11//37
f 13//23 20//23 11//38
f 26//11 24//36 9//12
f 23//19 10//39 7//17
f 21//40 14//35 18//26
f 1//41 3//42 21//40
f 22//27 25//43 13//44
f 26//11 6//13 22//27
f 16//21 15//45 28//46
f 12//31 5//33 8//7
f 5//33 17//47 27//8
f 29//48 22//48 5//48
f 18//26 24//36 26//11
f 15//45 16//21 19//20
f 3//42 14//35 21//40
f 28//49 9//12 24//36
f 25//50 4//50 20//50
f 29//25 21//40 18//26
f 11//51 27//52 13//52
f 17//53 13//52 27//52
f 7//17 9//54 2//18
f 17//55 22//27 13//44
f 25//15 10//56 23//15
f 5//33 21//32 29//57
f 23//58 15//59 4//5
f 28//60 14//60 16//60
f 12//61 19//61 1//61
f 8//7 5//33 27//8
f 8//6 15//59 12//62
f 14//35 28//49 24//36
f 6//13 10//63 25//43
f 10//64 6//64 7//64
f 22//27 6//13 25//43
f 4//5 15//59 8//6
f 15//59 23//58 2//65
f 12//62 15//59 19//66

