# WaveFront *.obj file (generated by CINEMA 4D)

mtllib ./membrane_lowres.mtl

v 22.88228225708008 7.71929693222046 -32.35977935791016
v 42.50780487060547 4.38620328903198 -24.65532112121582
v 56.34359359741211 11.62082481384277 -26.23934555053711
v 27.58072280883789 12.43555736541748 -31.54521179199219
v 35.7297248840332 4.76467227935791 -31.15543937683105
v 33.23252868652344 5.42921018600464 -27.20984840393066
v 46.08562469482422 5.59261226654053 -34.51845550537109
v 52.45229721069336 7.02971982955933 -32.5269775390625
v 50.22671890258789 8.42062664031982 -36.36690139770508
v 32.07899475097656 9.30731582641602 -24.15019226074219
v 45.46157455444336 4.43179178237915 -17.29979515075684
v 26.12662887573242 8.1296854019165 -30.78049278259277
v 35.30880355834961 5.21956729888916 -38.6966438293457
v 42.09857940673828 5.09643602371216 -40.54364395141602
v 35.09911727905273 12.50311183929443 -37.62715911865234
v 36.0711669921875 12.43244552612305 -20.06258583068848
v 50.88545227050781 10.39373111724854 -21.41666603088379
v 51.63979721069336 12.29764366149902 -32.31258392333984
v 23.69143486022949 5.88318729400635 -31.9956226348877
v 47.63653564453125 6.71406745910645 -20.32907104492188
v 49.67372131347656 6.46402454376221 -26.63774108886719
v 39.10220718383789 4.63776636123657 -36.36138916015625
v 39.69010543823242 6.92501068115234 -43.33259963989258
v 30.76497459411621 4.95717716217041 -35.00060653686523
v 29.72710609436035 12.33143138885498 -37.81999206542969
v 27.04005241394043 6.24359226226807 -34.55937957763672
v 36.14247512817383 10.86101055145264 -38.89731216430664
v 43.17631530761719 10.63298416137695 -36.1530647277832
v 39.72846603393555 6.82089471817017 -20.05370903015137
v 34.62047576904297 4.89110374450684 -21.31918716430664
v 46.64237976074219 12.32553768157959 -17.23528861999512
v 41.96996688842773 5.22297859191895 -29.9401741027832
v 47.11299133300781 8.91433143615723 -15.52854442596436
# 33 vertices

vn -0.13987852632999 -0.87912529706955 -0.45560151338577
vn -0.02076449245214 -0.97733652591705 -0.21067075431347
vn -0.07872426509857 -0.9799662232399 -0.18294438719749
vn 0 0 0
vn 0.18843147158623 0.61563462018967 -0.76517164707184
vn 0.17773132026196 0.71824741363525 -0.67270511388779
vn 0.0086349658668 0.61523061990738 -0.78829991817474
vn 0.40686574578285 -0.83617496490479 -0.3677930533886
vn 0.47122150659561 -0.84817391633987 -0.24197380244732
vn 0.02968824282289 -0.99928641319275 -0.02335036732256
vn -0.05865684896708 -0.99808883666992 -0.01944389939308
vn -0.91287219524384 0.24034790694714 -0.32999584078789
vn -0.90709090232849 0.24561281502247 -0.34184855222702
vn -0.01822419464588 0.99976867437363 -0.01142361760139
vn -0.00837246514857 0.99994391202927 -0.00648388033733
vn -0.03095593489707 0.99915140867233 -0.02716922387481
vn 0.02162053249776 -0.9965146780014 -0.080567099154
vn -0.17510917782784 -0.98452347517014 -0.0070926444605
vn -0.43622687458992 -0.01379604171962 0.89973098039627
vn 0.12965570390224 -0.99144977331162 0.01472311839461
vn 0.15220813453197 -0.98757374286652 0.03912473469973
vn 0.17893278598785 -0.98311054706573 0.03842825070024
vn -0.75831586122513 0.1343552172184 0.63789165019989
vn -0.75202602148056 0.20790520310402 0.62548559904099
vn -0.72452861070633 0.0245994925499 0.6888056397438
vn -0.23627479374409 -0.37584152817726 -0.89605659246445
vn -0.23660415410995 -0.37585285305977 -0.89596492052078
vn -0.68776524066925 0.07595539093018 -0.72194862365723
vn -0.73964238166809 0.08555696159601 -0.66753959655762
vn -0.13853389024734 -0.98830479383469 0.0637341812253
vn -0.23657767474651 -0.96855819225311 0.07698036730289
vn -0.30620887875557 -0.93944102525711 0.15390467643738
vn -0.23184882104397 0.40949043631554 0.88236254453659
vn 0.56845378875732 -0.75965064764023 0.31589731574059
vn 0.69041401147842 -0.63433772325516 0.34777021408081
vn 0.63739633560181 -0.70870584249496 0.30242666602135
vn -0.75497984886169 0.29673618078232 0.5847675204277
vn 0.53989785909653 -0.81759738922119 -0.20011214911938
vn 0.54830324649811 -0.80812346935272 -0.21517431735992
vn -0.32131358981133 -0.20795300602913 0.92385774850845
vn -0.19390386343002 -0.12483660131693 0.97304528951645
vn -0.37651106715202 -0.19348350167274 0.90598207712173
vn 0.79241579771042 -0.53050488233566 0.30106773972511
vn 0.09375004470348 0.89967358112335 -0.4263781607151
vn -0.46199864149094 -0.22479152679443 0.85791957378387
vn 0.83693414926529 0.15050023794174 -0.52620428800583
vn 0.78993618488312 0.14607316255569 -0.59553629159927
vn 0.22987681627274 0.66531944274902 -0.71028637886047
vn 0.2345087826252 0.81260484457016 -0.53355324268341
vn -0.72703582048416 0.35038614273071 0.59046459197998
vn 0.53128337860107 -0.82675457000732 -0.1849724650383
vn 0.23034824430943 0.59869831800461 -0.76713758707047
vn -0.89764004945755 -0.4046987593174 0.17453147470951
vn 0.14573514461517 -0.98881787061691 0.03163131698966
vn 0.12518221139908 -0.988933801651 0.07961983978748
vn 0.17664480209351 0.63557881116867 -0.75155580043793
vn 0.16233305633068 0.59351909160614 -0.78827857971191
vn 0.80691915750504 -0.49866873025894 0.31656125187874
vn 0.85507500171661 -0.42968875169754 0.29019698500633
vn 0.05586425215006 0.99829918146133 0.01666946336627
vn 0.0410176590085 0.99908339977264 0.01224440708756
vn 0.005196377635 0.99998188018799 0.00303415348753
vn -0.53462326526642 -0.38482400774956 -0.75238847732544
vn 0.10185281932354 0.99428725242615 0.03191994130611
vn 0.33432540297508 -0.80735540390015 -0.48621371388435
vn -0.23594543337822 -0.37583017349243 -0.89614808559418
vn 0.17640671133995 -0.82200568914413 0.54146772623062
vn 0.45090699195862 -0.75029128789902 0.48347267508507
vn 0.73093289136887 0.38333633542061 0.56461524963379
vn 0.67187815904617 -0.10973187536001 0.7324880361557
vn 0.59114646911621 -0.78035295009613 0.20394892990589
vn -0.91846942901611 0.23503451049328 -0.31807655096054
vn -0.65410405397415 -0.57877880334854 0.48699387907982
vn -0.48153501749039 -0.16287930309772 0.86115872859955
vn -0.45318329334259 -0.87149930000305 0.18738692998886
vn 0.80864244699478 0.26078248023987 -0.52734225988388
vn 0.87804400920868 0.153868496418 -0.45317015051842
vn -0.2508317232132 -0.88900512456894 0.38308393955231
vn -0.63193762302399 0.06591754406691 -0.77221089601517
# 79 normals

o ST6GAL1_M1_3500001262_100X_20170901_1-Scene-04-P4-E05.czi_cell_seg.tiff_1
usemtl Mat
f 23//1 14//2 13//3
f 15//5 27//6 25//7
f 7//8 14//9 9//8
f 13//3 22//10 5//11
f 4//12 26//12 12//13
f 4//14 15//15 25//16
f 5//11 2//17 30//18
f 19//19 12//19 1//19
f 32//20 7//21 8//22
f 16//23 10//24 30//25
f 24//26 25//26 27//27
f 27//28 23//29 13//28
f 24//30 6//31 26//32
f 31//33 16//33 33//33
f 3//34 17//35 21//36
f 10//24 16//23 4//37
f 20//38 11//39 2//38
f 16//40 30//41 29//42
f 17//35 20//43 21//36
f 12//44 26//44 1//44
f 16//40 29//42 33//45
f 8//46 18//46 3//47
f 27//6 28//48 23//49
f 4//37 12//50 10//24
f 2//38 32//51 20//38
f 15//5 18//52 28//48
f 6//53 30//53 10//53
f 32//20 21//54 20//55
f 18//52 9//56 28//48
f 28//48 9//56 14//57
f 20//43 33//58 11//59
f 14//2 22//10 13//3
f 31//60 18//61 16//62
f 17//35 33//58 20//43
f 4//14 16//62 15//15
f 1//63 26//63 19//63
f 31//60 3//64 18//61
f 9//8 8//65 7//8
f 16//62 18//61 15//15
f 22//10 32//20 5//11
f 24//26 26//66 25//26
f 29//67 30//67 2//67
f 19//68 26//68 12//68
f 17//69 31//69 33//69
f 31//70 17//70 3//70
f 8//71 3//34 21//36
f 25//72 26//12 4//12
f 26//73 6//73 10//73
f 15//5 28//48 27//6
f 13//3 5//11 24//30
f 29//42 11//74 33//45
f 11//75 29//75 2//75
f 5//11 32//20 2//17
f 28//76 14//76 23//76
f 9//77 18//46 8//46
f 24//30 5//11 6//31
f 26//78 10//78 12//78
f 22//10 7//21 32//20
f 27//28 13//28 24//79
f 22//10 14//2 7//21
f 8//22 21//54 32//20
f 5//11 30//18 6//31

