# WaveFront *.obj file (generated by CINEMA 4D)

mtllib ./membrane_lowres.mtl

v 27.19032096862793 11.56814670562744 -13.63684368133545
v 48.56868362426758 7.15575742721558 -12.14539909362793
v 44.15556716918945 9.27607536315918 -2.85639595985413
v 30.83289337158203 12.35437393188477 -6.04859781265259
v 37.16605377197266 9.51654434204102 -4.02318000793457
v 46.64699172973633 10.04003524780273 -14.91674137115479
v 42.56733322143555 12.11029720306396 -5.03096151351929
v 39.16097259521484 3.22510862350464 -6.82845640182495
v 47.13114547729492 5.48822736740112 -13.38528728485107
v 30.26394271850586 9.43693923950195 -20.53681755065918
v 31.7339038848877 6.87631702423096 -21.42879676818848
v 39.59192276000977 9.02149295806885 -23.87769317626953
v 44.39071273803711 2.96576333045959 -11.10133838653564
v 27.71774101257324 12.16697311401367 -16.9777774810791
v 44.94914627075195 9.02211380004883 -20.20616722106934
v 48.51559829711914 9.73335838317871 -8.30034255981445
v 44.96612930297852 4.82998085021973 -4.28511476516724
v 48.62142181396484 5.98186588287354 -1.99621725082397
v 31.85819625854492 5.3898286819458 -19.8830623626709
v 40.8846321105957 12.30511665344238 -3.03167748451233
v 28.03710556030273 9.63509464263916 -8.80843257904053
v 40.68655014038086 6.10810518264771 -21.79647827148438
v 33.05737686157227 6.00778722763062 -8.44204425811768
v 46.53304290771484 3.84208106994629 -13.57241439819336
v 39.66547012329102 11.85919666290283 -20.93452644348145
v 27.67196846008301 7.40746164321899 -13.66640186309814
v 38.53669357299805 3.34390544891357 -15.77042484283447
v 31.86421775817871 12.02957057952881 -19.22608757019043
v 33.77680969238281 4.29951906204224 -16.90789604187012
v 43.81003570556641 3.0921196937561 -4.54279184341431
v 41.89875793457031 10.50020217895508 -23.50247955322266
v 44.56474685668945 11.89631366729736 -12.04962730407715
# 32 vertices

vn -0.87825578451157 -0.29854911565781 -0.37354412674904
vn -0.86769217252731 -0.39132431149483 -0.30655428767204
vn -0.84423971176147 -0.39166653156281 -0.36586418747902
vn 0 0 0
vn 0.02994428388774 0.9988226890564 -0.03816508129239
vn 0.03136388584971 0.99893534183502 -0.03383053094149
vn 0.02707068435848 0.99909865856171 -0.03269716352224
vn -0.25388494133949 -0.27020281553268 0.92872649431229
vn -0.22849686443806 -0.04114152863622 0.97267496585846
vn -0.3130889236927 -0.32598465681076 0.892025411129
vn -0.27911099791527 -0.38102674484253 0.88142818212509
vn -0.18597063422203 -0.98182785511017 0.03780253604054
vn -0.467076420784 -0.85463893413544 0.22678603231907
vn -0.37505754828453 -0.92452847957611 0.06766805797815
vn 0.04750273376703 -0.93242567777634 -0.35822588205338
vn 0.04780892282724 -0.95374858379364 -0.29677930474281
vn 0.13166491687298 -0.93783247470856 -0.32114574313164
vn -0.4156711101532 -0.4834598004818 0.77037924528122
vn -0.33584940433502 -0.47036612033844 0.81606429815292
vn -0.42200657725334 -0.43713656067848 0.7942430973053
vn -0.12736439704895 -0.99184674024582 -0.00428510969505
vn -0.0467800796032 -0.99889951944351 0.00337294954807
vn -0.87918525934219 -0.25010076165199 -0.40556487441063
vn 0.07044581323862 -0.91596412658691 -0.39502790570259
vn 0.57825380563736 -0.48977044224739 -0.65249329805374
vn 0.50244122743607 -0.45846843719482 -0.73304808139801
vn 0.61939352750778 -0.48318862915039 -0.61877334117889
vn 0.99970501661301 0.02416802197695 -0.00239940476604
vn 0.54209536314011 -0.82107472419739 0.17879858613014
vn 0.50948804616928 0.72164821624756 0.46866384148598
vn 0.539730489254 0.70569807291031 0.45900022983551
vn 0.47487881779671 0.75975275039673 0.44414621591568
vn 0.31401383876801 0.94590276479721 -0.08162888884544
vn 0.0212845467031 0.99957400560379 -0.01996964588761
vn 0.18265576660633 0.97757512331009 -0.10480318963528
vn 0.41160705685616 0.90695744752884 0.08948644250631
vn 0.49171015620232 0.87061393260956 -0.01588963717222
vn -0.84020060300827 -0.49503421783447 -0.22136870026588
vn -0.80591237545013 0.4871878027916 0.33638259768486
vn -0.28701969981194 0.04247869551182 0.95698237419128
vn -0.43271148204803 -0.3832830786705 0.81599926948547
vn -0.08742246776819 -0.66292667388916 -0.7435627579689
vn -0.08415620028973 -0.59996002912521 -0.79559141397476
vn 0.90127599239349 0.32229360938072 -0.28953137993813
vn 0.89797860383987 0.3711431324482 -0.23640468716621
vn -0.41715684533119 -0.34609365463257 0.84035670757294
vn 0.82390278577805 -0.56050956249237 0.08374498784542
vn 0.57889366149902 0.78263741731644 -0.22882479429245
vn 0.50747925043106 0.82324492931366 -0.25442588329315
vn -0.24327422678471 0.65685993432999 -0.71368944644928
vn -0.31428533792496 0.57563483715057 -0.75489687919617
vn -0.25591540336609 0.62610906362534 -0.73654240369797
vn 0.57069283723831 0.67670446634293 0.46516737341881
vn 0.59807729721069 0.67118263244629 0.43796971440315
vn -0.43221810460091 0.15583236515522 0.88820254802704
vn 0.6832686662674 0.64441072940826 -0.34333482384682
vn 0.91516947746277 -0.35434997081757 0.19209605455399
vn 0.46910721063614 -0.55816221237183 -0.68439269065857
vn -0.23458756506443 0.702721118927 -0.6716782450676
vn -0.09010452777147 -0.72146332263947 -0.68656522035599
vn -0.4033445417881 0.90963685512543 0.0993681922555
vn -0.47848072648048 -0.86109387874603 0.17196954786777
vn -0.46412509679794 -0.88541185855865 -0.02517385408282
vn 0.89986908435822 0.27176183462143 -0.34114682674408
vn 0.72001296281815 -0.49472627043724 -0.48664897680283
vn -0.92005783319473 -0.10382357239723 -0.37777534127235
vn 0.01098378933966 0.9997341632843 -0.02027299255133
vn 0.76844894886017 -0.2105106562376 -0.60429418087006
vn 0.70713466405869 -0.69719642400742 0.11780336499214
vn -0.33212557435036 0.6831561923027 -0.6503769159317
vn -0.36940363049507 0.59068739414215 -0.71737676858902
vn 0.81398403644562 -0.36679908633232 -0.45043140649796
vn -0.03646015748382 -0.99920666217804 0.01602253504097
vn -0.03690167143941 -0.91913783550262 -0.39220383763313
vn -0.98524904251099 -0.11495455354452 0.12676645815372
vn -0.55982702970505 -0.73645174503326 0.37977966666222
vn 0.36023026704788 -0.92646986246109 -0.1090307533741
vn 0.00159197079483 -0.9386026263237 -0.34499642252922
vn -0.32859912514687 0.13688996434212 -0.93449652194977
# 79 normals

vt 0.69307851791382 0.1305570602417 0
vt 0.70846146345139 0.1098952293396 0
vt 0.71276897192001 0.13057124614716 0
vt 0.90300464630127 0.01357781887054 0
vt 0.90301710367203 0.02721381187439 0
vt 0.89308422803879 0.01677668094635 0
vt 0.55699074268341 0.56860089302063 0
vt 0.5444587469101 0.52133393287659 0
vt 0.56288248300552 0.54343748092651 0
vt 0.76215380430222 0.22218227386475 0
vt 0.76313811540604 0.20455026626587 0
vt 0.77434879541397 0.22577786445618 0
vt 0.5966312289238 0.86587995290756 0
vt 0.58332228660584 0.83540821075439 0
vt 0.59499931335449 0.83302968740463 0
vt 0.8799901008606 0.67114102840424 0
vt 0.86988663673401 0.66426169872284 0
vt 0.88031399250031 0.6376885175705 0
vt 0.71121388673782 0.28018283843994 0
vt 0.70149117708206 0.26415967941284 0
vt 0.72901779413223 0.28318965435028 0
vt 0.8810014128685 0.52281367778778 0
vt 0.88899564743042 0.52751404047012 0
vt 0.88580471277237 0.54796069860458 0
vt 0.04270668700337 0.25480091571808 0
vt 0.04416042566299 0.26778566837311 0
vt 0.02110333368182 0.26719260215759 0
vt 0.08195960521698 0.15070164203644 0
vt 0.06950572878122 0.15827858448029 0
vt 0.06939174234867 0.1313978433609 0
vt 0.09229787439108 0.32461583614349 0
vt 0.09764371812344 0.30843532085419 0
vt 0.11088702082634 0.33618879318237 0
vt 0.2335658967495 0.87723499536514 0
vt 0.22817720472813 0.86192554235458 0
vt 0.23145881295204 0.83379423618317 0
vt 0.07853401452303 0.74100661277771 0
vt 0.04962149262428 0.68893384933472 0
vt 0.08139378577471 0.70857930183411 0
vt 0.21314989030361 0.83258855342865 0
vt 0.22596761584282 0.79873204231262 0
vt 0.66798305511475 0.52098917961121 0
vt 0.66523158550262 0.5513311624527 0
vt 0.66047102212906 0.51033848524094 0
vt 0.4906525015831 0.23503839969635 0
vt 0.50555378198624 0.25841069221497 0
vt 0.4847249686718 0.25429284572601 0
vt 0.52942407131195 0.49751043319702 0
vt 0.51369106769562 0.52510046958923 0
vt 0.51900053024292 0.49305140972137 0
vt 0.62794494628906 0.47310090065002 0
vt 0.6509416103363 0.47358238697052 0
vt 0.64801269769669 0.48536109924316 0
vt 0.56226205825806 0.78905010223389 0
vt 0.53775274753571 0.76941215991974 0
vt 0.56108510494232 0.76945614814758 0
vt 0.04136009514332 0.01213705539703 0
vt 0.04962056130171 0.01928544044495 0
vt 0.04174143821001 0.03101134300232 0
vt 0.24114616215229 0.31251466274261 0
vt 0.24044322967529 0.33813536167145 0
vt 0.22961615025997 0.33572161197662 0
vt 0.54972237348557 0.13750898838043 0
vt 0.54964804649353 0.1167129278183 0
vt 0.57025545835495 0.11912453174591 0
vt 0.2025843411684 0.21764039993286 0
vt 0.19212670624256 0.23317694664001 0
vt 0.17984420061111 0.21692788600922 0
vt 0.69877046346664 0.97840535640717 0
vt 0.70955657958984 0.9784060716629 0
vt 0.71437960863113 0.99105221033096 0
vt 0.40837314724922 0.10849153995514 0
vt 0.42150065302849 0.10949516296387 0
vt 0.41619527339935 0.1264636516571 0
vt 0.88031399250031 0.72720777988434 0
vt 0.88022887706757 0.7606258392334 0
vt 0.8675754070282 0.73035651445389 0
vt 0.95175290107727 0.55035603046417 0
vt 0.96145504713058 0.55395936965942 0
vt 0.96135628223419 0.57133436203003 0
vt 0.02212927863002 0.1182861328125 0
vt 0.02760030329227 0.12870597839355 0
vt 0.00449321884662 0.12873196601868 0
vt 0.03199673816562 0.19226658344269 0
vt 0.04136594384909 0.20404362678528 0
vt 0.02489139325917 0.20599269866943 0
vt 0.75295782089233 0.86479842662811 0
vt 0.77085030078888 0.873142182827 0
vt 0.75646913051605 0.8813117146492 0
vt 0.69615596532822 0.73443508148193 0
vt 0.69814491271973 0.75786846876144 0
vt 0.68425172567368 0.73133432865143 0
vt 0.99618995189667 0.95120221376419 0
vt 0.98730915784836 0.95754444599152 0
vt 0.98732769489288 0.9451248049736 0
vt 0.41810423135757 0.80973875522614 0
vt 0.4142544567585 0.8291916847229 0
vt 0.39220550656319 0.80450975894928 0
vt 0.81776976585388 0.33384609222412 0
vt 0.81791454553604 0.30072724819183 0
vt 0.82969027757645 0.32658100128174 0
vt 0.22978559136391 0.27065145969391 0
vt 0.19670601189137 0.26705873012543 0
vt 0.2190202921629 0.24311923980713 0
vt 0.2802400290966 0.12008059024811 0
vt 0.29136112332344 0.12940001487732 0
vt 0.28015756607056 0.13494801521301 0
vt 0.28507715463638 0.52983570098877 0
vt 0.3022241294384 0.52086544036865 0
vt 0.29038020968437 0.56934231519699 0
vt 0.7305526137352 0.40588545799255 0
vt 0.71747004985809 0.38590633869171 0
vt 0.73217219114304 0.3670893907547 0
vt 0.76077252626419 0.9696980714798 0
vt 0.76846277713776 0.94386261701584 0
vt 0.76853829622269 0.98819613456726 0
vt 0.77144235372543 0.50863099098206 0
vt 0.75613749027252 0.49972796440125 0
vt 0.77134835720062 0.48189198970795 0
vt 0.42554873228073 0.27148807048798 0
vt 0.40837314724922 0.24856984615326 0
vt 0.42418327927589 0.24600672721863 0
vt 0.92239564657211 0.19395101070404 0
vt 0.91356962919235 0.19646954536438 0
vt 0.9231344461441 0.18394482135773 0
vt 0.25189244747162 0.82619720697403 0
vt 0.24089285731316 0.81338512897491 0
vt 0.2412153929472 0.79080379009247 0
vt 0.19635133445263 0.24317193031311 0
vt 0.61543124914169 0.46282923221588 0
vt 0.62613379955292 0.45196866989136 0
vt 0.06426398456097 0.0827784538269 0
vt 0.08557678759098 0.08284819126129 0
vt 0.07981832325459 0.09610283374786 0
vt 0.56432175636292 0.5650674700737 0
vt 0.90314263105392 0.68285524845123 0
vt 0.90296256542206 0.71393293142319 0
vt 0.89134365320206 0.68688309192657 0
vt 0.16128426790237 0.06965696811676 0
vt 0.14823904633522 0.06135380268097 0
vt 0.15925641357899 0.04928517341614 0
vt 0.41696000099182 0.71148312091827 0
vt 0.40552440285683 0.74264585971832 0
vt 0.40496352314949 0.71100866794586 0
vt 0.20194725692272 0.03119695186615 0
vt 0.21444177627563 0.03631281852722 0
vt 0.19941733777523 0.04054796695709 0
vt 0.90209740400314 0.22591805458069 0
vt 0.88634860515594 0.22587442398071 0
vt 0.89685714244843 0.20509040355682 0
vt 0.89480978250504 0.5462532043457 0
vt 0.87724661827087 0.81518983840942 0
vt 0.86426550149918 0.80746746063232 0
vt 0.88031399250031 0.80194473266602 0
vt 0.09055116772652 0.44477689266205 0
vt 0.09073849022388 0.43626797199249 0
vt 0.11839024722576 0.44526743888855 0
vt 0.27488726377487 0.25636506080627 0
vt 0.26583176851273 0.26095235347748 0
vt 0.26217222213745 0.23196744918823 0
vt 0.52195525169373 0.73879420757294 0
vt 0.51899343729019 0.75935482978821 0
vt 0.51085036993027 0.7411682009697 0
vt 0.74046671390533 0.25591599941254 0
vt 0.74269270896912 0.23361563682556 0
vt 0.75653803348541 0.25750339031219 0
vt 0.46735146641731 0.16221165657043 0
vt 0.4368614256382 0.15056800842285 0
vt 0.48294910788536 0.15415334701538 0
vt 0.16050238907337 0.41241300106049 0
vt 0.13738407194614 0.38874042034149 0
vt 0.16411906480789 0.38386476039886 0
# 172 texture coordinates

o TOMM20_M3_3500000552_100X_20170207_E06_P06.czi_cell_seg.tiff_1
usemtl Mat
f 10/1/1 11/2/2 19/3/3
f 20/4/5 7/5/6 14/6/7
f 3/7/8 20/8/9 5/9/10
f 5/10/10 17/11/11 3/12/8
f 8/13/12 23/14/13 29/15/14
f 22/16/15 24/17/16 13/18/17
f 23/19/18 8/20/19 5/21/10
f 5/22/10 21/23/20 23/24/18
f 27/25/21 13/26/22 8/27/12
f 10/28/1 19/29/3 26/30/23
f 27/31/24 22/32/15 13/33/17
f 22/34/25 12/35/26 15/36/27
f 16/37/28 18/38/28 2/39/28
f 13/36/29 24/40/29 17/41/29
f 27/42/21 8/43/12 29/44/14
f 16/45/30 3/46/31 18/47/32
f 7/48/6 32/49/33 28/50/34
f 14/51/7 7/52/6 28/53/34
f 32/54/33 25/55/35 28/56/34
f 7/57/36 16/58/37 32/59/33
f 10/60/38 1/61/38 14/62/38
f 4/63/39 1/64/39 21/65/39
f 4/66/40 5/67/10 20/68/9
f 21/69/20 5/70/10 4/71/41
f 11/72/42 12/73/43 22/74/42
f 2/75/44 6/76/44 16/77/45
f 18/78/46 3/79/8 17/80/11
f 17/81/47 30/82/47 13/83/47
f 32/84/33 6/85/48 31/86/49
f 12/87/50 10/88/51 28/89/52
f 7/90/53 20/91/54 3/92/31
f 8/93/55 30/94/55 17/95/55
f 31/96/49 6/97/48 15/98/56
f 17/99/57 24/100/57 9/101/57
f 31/102/58 15/103/27 12/104/26
f 25/105/59 12/106/50 28/107/52
f 11/108/42 22/109/42 19/110/60
f 4/111/61 14/112/61 1/113/61
f 26/114/62 29/115/14 23/116/13
f 3/117/31 16/118/30 7/119/53
f 32/120/33 16/121/37 6/122/48
f 26/123/62 19/124/63 29/125/14
f 5/126/10 8/127/19 17/128/11
f 15/103/64 6/129/44 2/104/44
f 15/130/27 9/131/65 22/52/25
f 26/132/23 1/133/66 10/134/1
f 4/135/67 20/7/5 14/9/7
f 22/136/68 9/137/68 24/138/68
f 9/139/69 2/140/69 17/141/69
f 25/142/59 31/143/70 12/144/50
f 28/145/52 10/146/51 14/147/71
f 15/148/27 2/149/72 9/150/65
f 8/151/12 13/24/22 30/23/73
f 27/152/24 29/153/74 22/154/15
f 26/155/75 21/156/75 1/157/75
f 23/158/13 21/159/76 26/160/62
f 17/161/77 2/162/77 18/163/77
f 19/164/78 22/165/15 29/166/74
f 32/167/33 31/168/49 25/169/35
f 11/170/79 10/171/79 12/172/79

