# WaveFront *.obj file (generated by CINEMA 4D)

mtllib ./membrane_lowres.mtl

v 63.1196403503418 3.92904448509216 -36.55757904052734
v 51.91961669921875 3.78615641593933 -46.32921981811523
v 59.10550689697266 7.90157985687256 -40.93484497070312
v 59.81132888793945 9.65714836120605 -22.56234169006348
v 56.7927360534668 5.13090133666992 -33.12324523925781
v 72.94735717773438 7.3210597038269 -25.22994041442871
v 56.14874649047852 9.61524677276611 -30.94648551940918
v 70.49474334716797 4.95107460021973 -27.05159759521484
v 70.41370391845703 0.61232328414917 -31.62714767456055
v 56.1824951171875 0.38293141126633 -30.89587593078613
v 59.01018905639648 9.71581840515137 -33.97706604003906
v 54.15382385253906 9.7799768447876 -45.41648101806641
v 67.87383270263672 0.20624586939812 -22.46519470214844
v 51.07761764526367 8.08709335327148 -31.73879623413086
v 59.82434463500977 0.34474274516106 -35.89819717407227
v 65.84947204589844 8.1861743927002 -35.87967300415039
v 64.67967987060547 8.32868480682373 -22.6948413848877
v 50.55843353271484 0.23819018900394 -43.62212753295898
v 70.45199584960938 9.45367527008057 -29.27592849731445
v 43.32407379150391 8.14753437042236 -40.57837677001953
v 50.06927108764648 0.00107041164301 -34.99831771850586
v 73.30848693847656 5.37892246246338 -28.77660179138184
v 61.92665100097656 -0.00874736253172 -22.5966911315918
v 60.19711303710938 0.57911497354507 -39.41305923461914
v 56.19054794311523 0.25543096661568 -23.82184410095215
v 56.83236694335938 0.47432032227516 -34.63799285888672
v 59.10297775268555 0.88890707492828 -44.80114364624023
v 47.78487014770508 9.88699817657471 -38.81673812866211
v 65.11577606201172 0.22340157628059 -36.65564346313477
# 29 vertices

vn 0.92927265167236 -0.27612301707268 0.24537406861782
vn 0 0 0
vn -0.39603614807129 0.82891756296158 0.39503288269043
vn -0.32059198617935 0.87162560224533 0.37079587578774
vn 0.23560540378094 0.90235245227814 0.36090186238289
vn 0.21752189099789 0.91238415241241 0.34675553441048
vn 0.02941001392901 0.99845558404922 -0.04713322222233
vn 0.07947418838739 0.98718529939651 -0.13838022947311
vn 0.13565328717232 0.95121204853058 -0.27711695432663
vn -0.25807729363441 0.92931991815567 -0.26412227749825
vn -0.08199819177389 0.99353641271591 -0.07849673181772
vn -0.1235109642148 0.98309916257858 -0.13513375818729
vn 0.8119267821312 0.54288023710251 -0.2146065980196
vn -0.23256798088551 0.12562829256058 -0.96443229913712
vn -0.04475032165647 0.18502397835255 -0.9817146062851
vn -0.01578995212913 0.01795032806695 -0.9997141957283
vn 0.81625241041183 -0.249620616436 -0.5209813117981
vn 0.78420549631119 -0.21684417128563 0.58137792348862
vn 0.80639958381653 -0.17671552300453 0.56435042619705
vn -0.33841556310654 0.17221032083035 -0.92510461807251
vn -0.44985607266426 0.14840807020664 -0.88068413734436
vn -0.43319335579872 -0.40249985456467 -0.80643498897552
vn 0.98629242181778 0.12453581392765 -0.10825031995773
vn 0.97569167613983 0.10553746670485 -0.19206158816814
vn -0.01308261975646 -0.99977374076843 -0.01677319779992
vn -0.04217163845897 -0.99894899129868 -0.01795678026974
vn -0.03330209106207 -0.99929422140121 -0.01737871393561
vn -0.7415069937706 -0.16924771666527 0.64924776554108
vn -0.14265817403793 -0.05068783462048 -0.98847323656082
vn 0.03105759993196 -0.37404093146324 0.92689198255539
vn 0.01284508034587 -0.37323239445686 0.92764896154404
vn 0.02355241961777 -0.34020110964775 0.94005769491196
vn 0.06025249511003 -0.99791634082794 -0.02307846210897
vn 0.05729968845844 -0.99835675954819 0.00073107075877
vn 0.05612786114216 -0.99728089570999 -0.04775419086218
vn -0.02347630262375 -0.37124967575073 0.92823624610901
vn -0.06493385136127 -0.00481109786779 0.99787795543671
vn 0.00863685645163 0.01764518767595 0.99980700016022
vn 0.03906364738941 0.04358644783497 0.99828565120697
vn 0.50771510601044 0.83532363176346 -0.21085491776466
vn -0.11685902625322 -0.0291016921401 0.99272203445435
vn -0.00311362161301 0.99998080730438 0.00535828666762
vn 0.87793725728989 0.33955582976341 -0.33753225207329
vn -0.74804013967514 -0.66088074445724 -0.06060212105513
vn 0.01742358505726 -0.99973028898239 -0.01535419747233
vn -0.87833625078201 0.28705412149429 0.38226339221001
vn -0.21080221235752 -0.04960211738944 0.97626948356628
vn 0.06838599592447 -0.9973121881485 0.02630089782178
vn 0.67520505189896 0.28476303815842 0.68044704198837
vn -0.95363986492157 -0.06149392575026 -0.29460057616234
vn -0.99043846130371 -0.00437639793381 -0.13788589835167
vn -0.89615565538406 -0.08877871185541 -0.4347682595253
vn 0.27605372667313 -0.74881899356842 0.60254830121994
vn 0.40731909871101 -0.78293985128403 0.47020888328552
vn 0.68812263011932 0.00730128725991 -0.72555762529373
vn -0.02437105029821 -0.99965184926987 -0.01011137012392
vn -0.0134866014123 0.99970006942749 0.02044173888862
vn -0.42646250128746 0.2894591987133 -0.85693824291229
vn -0.63129544258118 -0.302629083395 -0.71406006813049
vn 0.98949831724167 0.14260041713715 -0.02362741716206
vn 0.23138222098351 0.06160211190581 -0.97091060876846
vn 0.09102699905634 -0.99566912651062 -0.01889573968947
vn 0.06369239836931 -0.99787712097168 -0.01358565595001
vn -0.06626679748297 -0.58906692266464 -0.80536258220673
vn -0.79739570617676 -0.16924543678761 -0.57923746109009
vn 0.25354102253914 0.89175426959991 0.37482169270515
vn -0.4682711660862 0.77949267625809 0.41606891155243
vn 0.69838589429855 0.34536638855934 -0.62688058614731
vn -0.99999278783798 -0.0036495833192 0.001072576968
vn 0.13487568497658 -0.68780905008316 0.71325117349625
vn 0.76013493537903 -0.25645396113396 0.5970144867897
vn -0.00858638528734 -0.43766623735428 0.89909654855728
vn -0.42910522222519 0.23401345312595 -0.87241411209106
vn 0.06605177372694 -0.99531263113022 -0.07063915580511
# 74 normals

o TUBA1B_M7_3500000722_100X_20170317_E04_P19.czi_cell_seg.tiff_1
usemtl Mat
f 9//1 8//1 13//1
f 14//3 7//4 28//3
f 17//5 6//6 19//5
f 11//7 19//8 16//9
f 20//10 28//11 12//12
f 6//13 22//13 19//13
f 1//14 16//15 29//16
f 19//17 8//17 16//17
f 24//18 5//18 26//19
f 11//20 1//14 5//21
f 19//22 22//22 8//22
f 3//23 24//23 27//24
f 23//25 25//26 10//27
f 14//28 20//28 21//28
f 1//14 29//16 15//29
f 5//30 14//31 26//32
f 24//33 21//34 18//35
f 14//31 21//36 26//32
f 4//37 13//38 17//39
f 11//40 3//40 12//40
f 4//37 23//41 13//38
f 4//42 19//8 11//7
f 16//43 8//43 9//43
f 20//44 18//44 21//44
f 10//27 29//45 23//25
f 16//15 1//14 11//20
f 7//46 25//46 4//46
f 4//37 25//47 23//41
f 21//34 24//33 26//48
f 17//49 13//49 8//49
f 10//50 7//51 5//52
f 8//53 22//54 6//53
f 29//55 16//55 9//55
f 29//45 10//27 15//56
f 7//57 4//42 11//7
f 2//58 20//58 12//58
f 18//59 20//59 2//59
f 24//23 3//23 11//60
f 12//61 27//61 2//61
f 9//62 13//63 29//45
f 2//64 27//64 18//64
f 5//52 15//65 10//50
f 4//66 17//5 19//5
f 20//67 14//3 28//3
f 12//68 3//68 27//68
f 28//11 11//7 12//12
f 7//57 11//7 28//11
f 25//69 7//51 10//50
f 17//70 8//53 6//53
f 29//45 13//63 23//25
f 24//18 11//71 5//18
f 14//31 5//30 7//72
f 1//14 15//73 5//21
f 18//35 27//74 24//33

