# WaveFront *.obj file (generated by CINEMA 4D)

mtllib ./membrane_lowres.mtl

v 19.6409854888916 8.67119407653809 -14.3589506149292
v 23.3411808013916 8.86591911315918 -22.88068008422852
v 29.53661155700684 11.24955368041992 -10.523850440979
v 25.63474464416504 3.83910799026489 -8.75700569152832
v 27.79602241516113 4.65595102310181 -15.06025695800781
v 20.38538360595703 15.8207836151123 -12.7255916595459
v 27.55198860168457 3.95227932929993 -21.06106567382812
v 23.4288387298584 9.54006004333496 -8.95121002197266
v 19.11160278320312 10.30438613891602 -17.93132591247559
v 31.6417407989502 12.36141014099121 -14.61740970611572
v 31.11605644226074 10.44441032409668 -18.02755355834961
v 22.24866104125977 4.03007650375366 -9.46017456054688
v 29.21547889709473 6.80837059020996 -18.85100364685059
v 21.10009956359863 4.57116746902466 -19.23088645935059
v 24.58429527282715 3.88009572029114 -20.52227592468262
v 23.98147583007812 15.7921724319458 -8.394606590271
v 21.89672088623047 4.12820434570312 -12.44705772399902
v 29.87588691711426 16.03712272644043 -12.0525484085083
v 30.23234367370605 4.37202548980713 -13.78134059906006
v 25.95851516723633 4.07927942276001 -11.66077899932861
v 24.59286880493164 16.79093742370605 -17.86951446533203
v 20.53589057922363 13.82615089416504 -21.82439231872559
v 30.64886283874512 4.00933027267456 -16.4746265411377
v 23.5891284942627 3.72025728225708 -15.0731840133667
v 28.01947975158691 4.81801748275757 -11.70206069946289
v 19.62925910949707 5.14606666564941 -16.02709770202637
v 30.58539581298828 15.96763706207275 -17.14706802368164
v 25.80648612976074 16.06708717346191 -22.85210609436035
v 28.27870178222656 12.14510631561279 -21.7888298034668
v 26.1114444732666 16.61886787414551 -13.28861713409424
# 30 vertices

vn -0.99198567867279 0.10305749624968 0.07309992611408
vn -0.98891913890839 0.00405546836555 0.14839985966682
vn -0.98216044902802 0.18193998932838 0.04752526804805
vn 0 0 0
vn -0.45251500606537 0.86387765407562 -0.22123642265797
vn -0.4877710044384 0.83912873268127 -0.24071224033833
vn -0.14994932711124 0.65821087360382 -0.7377490401268
vn 0.16111545264721 -0.73350018262863 0.66031759977341
vn 0.96680587530136 0.12812969088554 -0.2210638076067
vn 0.99007278680801 -0.02567195892334 -0.13819141685963
vn 0.99882453680038 -0.02866549044847 -0.03908677771688
vn -0.82458055019379 -0.14070990681648 0.54796677827835
vn -0.79621958732605 -0.06249886006117 0.60177093744278
vn -0.79282414913177 -0.01809352263808 0.60918182134628
vn -0.10343833267689 -0.9945804476738 -0.01049708668143
vn -0.11400897800922 -0.99342715740204 -0.01021901797503
vn 0.04115387424827 -0.99813383817673 -0.04511290043592
vn 0.48634603619576 -0.25046133995056 -0.83710014820099
vn 0.70123016834259 -0.21400447189808 -0.68005758523941
vn 0.45172262191772 -0.32899847626686 -0.82928085327148
vn 0.71386885643005 -0.22279170155525 -0.66389393806458
vn -0.97285640239716 0.19718813896179 0.12110846489668
vn -0.05317882075906 -0.99807900190353 -0.03178479149938
vn 0.03004371747375 -0.99946272373199 -0.01310316845775
vn 0.99281096458435 -0.10706592351198 0.0535098426044
vn 0.33703488111496 -0.20124058425426 -0.91973352432251
vn 0.00892865564674 -0.99911826848984 -0.04102323204279
vn -0.09662027657032 -0.99464243650436 -0.03675481677055
vn -0.02105718106031 0.98727750778198 0.15760624408722
vn 0.11808217316866 0.98742574453354 0.10510467737913
vn 0.02339546941221 0.9965712428093 0.07936235517263
vn -0.20560911297798 -0.04625749960542 0.97754037380218
vn 0.92542779445648 0.35806068778038 0.12399973720312
vn 0.27104446291924 -0.08898844569921 -0.95844453573227
vn -0.02345092408359 -0.99824100732803 -0.05445118993521
vn -0.05073539912701 -0.99835193157196 -0.02682070061564
vn -0.95182931423187 0.29584568738937 -0.08059968054295
vn 0.30180376768112 -0.81427693367004 0.49585032463074
vn 0.29766047000885 -0.20592698454857 0.93219757080078
vn 0.20525877177715 -0.2523652613163 0.94561123847961
vn 0.22978265583515 -0.20504294335842 0.95139753818512
vn -0.33324977755547 -0.94249731302261 -0.02536485157907
vn 0.14531069993973 0.98873424530029 -0.03590732440352
vn 0.14795660972595 0.98321050405502 -0.1067987382412
vn 0.05231247097254 0.99856162071228 -0.01175285782665
vn -0.85100197792053 -0.22231777012348 0.47578397393227
vn -0.82658356428146 -0.18702752888203 0.53082978725433
vn -0.28067082166672 -0.95938616991043 -0.02832182124257
vn 0.09131421148777 -0.20024120807648 0.97548204660416
vn -0.3871898651123 -0.47136187553406 -0.79240268468857
vn -0.73577678203583 -0.29271465539932 -0.61069685220718
vn -0.5434917807579 -0.36058273911476 -0.75802165269852
vn 0.79256325960159 0.2865791618824 -0.53825259208679
vn 0.81066000461578 0.39343762397766 -0.43363261222839
vn -0.99103945493698 -0.05442536622286 0.1219782307744
vn 0.77138823270798 -0.13326546549797 -0.62225437164307
vn 0.82801014184952 -0.05011594295502 -0.55846899747849
vn -0.77505558729172 -0.21387267112732 -0.59459841251373
vn -0.2235900759697 0.08039993047714 -0.97136157751083
vn -0.41624769568443 0.8866959810257 -0.20126619935036
vn 0.50631082057953 0.22953967750072 0.83124059438705
vn 0.89054030179977 -0.01183137483895 0.45475041866302
vn 0.87563675642014 0.08949183672667 0.47460672259331
vn -0.12815774977207 0.98711222410202 0.09583876281977
vn -0.16967603564262 -0.97981423139572 0.10570753365755
vn 0.89575237035751 -0.11302582919598 0.42994514107704
vn -0.87942224740982 -0.20795123279095 -0.42822051048279
vn -0.89977824687958 -0.2277045994997 -0.37222275137901
vn 0.92282682657242 0.36159926652908 0.1328030526638
vn 0.75648200511932 0.17321780323982 -0.63065886497498
vn 0.6265007853508 -0.28096905350685 0.72701662778854
vn 0.98699373006821 -0.03372550010681 0.15718120336533
vn 0.02367195114493 -0.99971348047256 -0.00354838627391
vn -0.76927745342255 0.01112631894648 0.63881796598434
vn 0.27646669745445 -0.1094374358654 0.95477199554443
# 75 normals

o ST6GAL1_M5_3500001262_100X_20170901_3-Scene-06-P31-F08.czi_cell_seg.tiff_1
usemtl Mat
f 9//1 1//2 6//3
f 6//5 21//6 28//5
f 13//7 7//7 15//7
f 24//8 23//8 5//8
f 27//9 10//10 11//11
f 1//12 8//13 6//14
f 17//15 24//16 20//17
f 29//18 13//19 15//20
f 11//21 13//19 29//18
f 12//22 8//22 17//22
f 15//23 23//24 24//16
f 10//10 19//25 11//11
f 15//20 2//26 29//18
f 5//27 19//28 20//17
f 16//29 18//30 30//31
f 12//32 4//32 8//32
f 18//33 10//33 27//33
f 29//18 2//26 28//34
f 17//15 4//35 12//36
f 9//1 6//3 22//37
f 19//38 25//38 20//38
f 8//39 20//40 3//41
f 26//42 24//16 17//15
f 27//43 28//44 21//45
f 26//46 17//47 1//12
f 15//23 24//16 14//48
f 20//40 25//49 3//41
f 15//50 14//51 2//52
f 28//53 11//53 29//54
f 9//1 26//55 1//2
f 23//56 7//57 13//19
f 27//43 21//45 30//31
f 2//52 14//51 22//58
f 28//59 2//59 22//59
f 22//60 6//5 28//5
f 18//61 16//61 3//61
f 11//21 23//56 13//19
f 10//62 18//63 3//62
f 16//29 30//31 6//64
f 5//27 23//65 19//28
f 17//15 20//17 4//35
f 10//62 3//62 19//66
f 14//48 24//16 26//42
f 9//67 14//51 26//68
f 24//16 5//27 20//17
f 30//31 18//30 27//43
f 8//69 4//69 20//69
f 6//64 30//31 21//45
f 11//53 28//53 27//70
f 1//12 17//47 8//13
f 25//71 19//71 3//71
f 11//11 19//25 23//72
f 7//73 23//24 15//23
f 9//67 22//58 14//51
f 6//14 8//13 16//74
f 8//39 3//41 16//75

