# WaveFront *.obj file (generated by CINEMA 4D)

mtllib ./membrane_lowres.mtl

v 8.94883728027344 14.11123943328857 -29.1507568359375
v 19.95857238769531 7.61883115768433 -31.23110771179199
v 30.18515396118164 9.19711685180664 -26.71265411376953
v 19.22891426086426 15.59426403045654 -36.9624137878418
v 7.92554378509521 7.13870573043823 -34.34331512451172
v 5.1798357963562 10.62185001373291 -28.04042816162109
v 10.59881687164307 9.23394203186035 -28.92073059082031
v 32.5219612121582 12.31988716125488 -29.11594772338867
v 1.16463971138 8.30500888824463 -29.67463111877441
v 31.51111221313477 14.38847732543945 -27.61853790283203
v 25.95625686645508 7.35386991500854 -32.42532348632812
v 19.94038391113281 14.29923439025879 -24.72307395935059
v 19.36867904663086 14.82490348815918 -39.04252624511719
v 15.36596298217773 14.89112091064453 -26.30273628234863
v 21.22796821594238 11.17836284637451 -25.35905456542969
v 23.56550979614258 7.87136316299438 -28.09578895568848
v 7.74527025222778 9.39731693267822 -33.47832107543945
v 27.10762786865234 15.40304374694824 -29.46149635314941
v 13.24668312072754 7.18411302566528 -32.58855056762695
v 29.7672176361084 7.18507719039917 -27.91657829284668
v 16.93257331848145 6.87463808059692 -36.4731559753418
v 18.19274520874023 6.12583255767822 -33.01085662841797
v 18.06879806518555 7.51223230361938 -29.55435943603516
v 11.49435329437256 14.60571002960205 -38.76926040649414
v 20.70417976379395 8.7009334564209 -36.35383224487305
v 26.92705154418945 8.40225982666016 -31.51012802124023
v 4.12332487106323 7.26078510284424 -32.06170654296875
v 13.05093288421631 15.69961452484131 -34.4680061340332
v 10.58875846862793 12.78712844848633 -34.06203842163086
v 29.92545127868652 14.42021560668945 -31.82828903198242
v 15.3165979385376 9.4456729888916 -37.6436767578125
v 9.77077007293701 14.7225866317749 -37.79417419433594
v 2.06320667266846 7.16083288192749 -27.9621410369873
# 33 vertices

vn -0.00799260567874 -0.99994271993637 0.00711460364982
vn -0.01010020822287 -0.99951535463333 -0.02944492734969
vn 0 0 0
vn -0.47880014777184 0.26739403605461 -0.83621221780777
vn -0.48177418112755 0.27094343304634 -0.83335661888123
vn -0.55528408288956 0.43649813532829 -0.70790463685989
vn 0.67716789245605 -0.73366272449493 -0.05641466379166
vn -0.00587428361177 -0.99902898073196 0.04366459324956
vn 0.21593856811523 0.96573883295059 -0.14394104480743
vn 0.2508946955204 0.94704413414001 -0.20039775967598
vn 0.2593939602375 0.96152621507645 -0.09045515954494
vn 0.60551601648331 -0.47414445877075 -0.63916927576065
vn 0.58180797100067 -0.39713573455811 -0.70977652072906
vn 0.55142199993134 -0.31556883454323 -0.77223706245422
vn 0.10793453454971 -0.30489113926888 -0.94625133275986
vn 0.07124723494053 -0.30096557736397 -0.95096981525421
vn 0.17458759248257 -0.33844009041786 -0.92464989423752
vn -0.17708526551723 -0.90803211927414 0.37962946295738
vn -0.54966634511948 -0.37853425741196 0.74470043182373
vn -0.06117524579167 -0.56758284568787 0.821040391922
vn -0.49168613553047 0.5136456489563 -0.703144967556
vn -0.50021427869797 0.31256446242332 -0.80752032995224
vn -0.51035165786743 -0.81436461210251 -0.27631765604019
vn -0.70645552873611 -0.60383403301239 -0.36919522285461
vn 0.06308872252703 -0.99797856807709 0.00765772117302
vn 0.00432572467253 -0.99969553947449 -0.0242921859026
vn 0.06312043964863 -0.99797624349594 0.00769361574203
vn 0.8595609664917 -0.38179886341095 0.33968311548233
vn -0.09948264807463 -0.96369272470474 -0.24778918921947
vn 0.02799117937684 0.98324924707413 0.1801038980484
vn 0.05764224380255 0.97295361757278 -0.22369304299355
vn -0.10750982910395 0.99386554956436 -0.02594081312418
vn 0.18032057583332 -0.31143307685852 -0.93300265073776
vn 0.15212328732014 0.94513708353043 -0.28909230232239
vn 0.18656618893147 0.10916262120008 0.9763588309288
vn 0.16161012649536 0.00507465470582 0.98684161901474
vn 0.49881014227867 -0.78415781259537 0.36916792392731
vn -0.25256273150444 0.96311444044113 0.09285825490952
vn -0.05661461502314 0.98289066553116 0.17527315020561
vn 0.54223036766052 -0.23620003461838 -0.80634719133377
vn 0.54234671592712 -0.2365248054266 -0.80617374181747
vn 0.25149917602539 -0.75614434480667 0.60414719581604
vn -0.59765988588333 -0.61164236068726 -0.51835918426514
vn -0.0846828147769 -0.61663347482681 0.78268253803253
vn -0.05472601950169 -0.57695734500885 0.81493878364563
vn -0.08628866821527 -0.67067074775696 0.73671907186508
vn -0.02727480046451 -0.23228825628757 -0.97226446866989
vn -0.05531128123403 -0.99686282873154 -0.0566142462194
vn 0.02023949474096 -0.99816256761551 0.05711234360933
vn -0.19361191987991 0.97638297080994 -0.09586850553751
vn 0.127018481493 -0.92377108335495 -0.36126619577408
vn -0.08020021021366 -0.49948701262474 0.86260110139847
vn -0.6054475903511 0.61658406257629 -0.50324678421021
vn 0.13478471338749 -0.09907201677561 0.98590964078903
vn 0.17945227026939 -0.02318486012518 0.98349344730377
vn 0.240588337183 0.10689244419336 0.9647234082222
vn 0.54211401939392 -0.235875248909 -0.80652046203613
vn -0.36748027801514 -0.11729227751493 0.92260539531708
vn -0.33960273861885 -0.14396780729294 0.92948549985886
vn 0.41919058561325 -0.84380680322647 -0.33506616950035
vn 0.05373493209481 0.95149719715118 0.30292844772339
vn 0.07644624263048 0.9393105506897 0.33444225788116
vn -0.0575277581811 0.96238094568253 -0.26554369926453
vn -0.28139713406563 -0.87567359209061 -0.39244282245636
vn 0.11454588919878 -0.15277504920959 0.98160022497177
vn -0.81289100646973 -0.5704100728035 -0.11764564365149
vn 0.76450717449188 0.57887905836105 -0.28359785676003
vn -0.3947933614254 -0.09043658524752 0.91430819034576
vn -0.09381802380085 -0.71495538949966 0.69284701347351
vn 0.82015705108643 -0.42867013812065 -0.37892526388168
vn -0.21804532408714 -0.96726411581039 -0.12983225286007
vn 0.76734983921051 -0.08508986234665 0.63555800914764
vn -0.73641508817673 0.54985964298248 -0.3941410779953
vn -0.14344196021557 -0.68917155265808 0.71025836467743
vn -0.46010059118271 0.25922313332558 -0.84918242692947
vn -0.08633659780025 -0.97214102745056 -0.21791709959507
vn -0.57606440782547 0.63733148574829 0.51181870698929
vn -0.57229179143906 0.73431277275085 0.36505731940269
vn -0.56200295686722 0.52061939239502 0.64273488521576
# 79 normals

o SEC61B_Int_3500001191_100X_20170815_3-Scene-04-P9-E04.czi_cell_seg.tiff_1
usemtl Mat
f 27//1 19//1 33//2
f 29//4 5//5 17//6
f 22//7 25//7 2//7
f 27//1 5//8 19//1
f 30//9 18//10 10//11
f 20//12 26//13 8//13
f 30//14 8//13 26//13
f 31//15 13//16 25//17
f 23//18 7//18 19//18
f 23//19 15//19 12//19
f 7//20 23//20 12//20
f 9//21 17//6 27//22
f 27//23 33//23 9//23
f 24//24 31//24 29//24
f 19//25 2//26 23//27
f 20//28 8//28 3//28
f 16//29 26//29 20//29
f 18//30 4//31 28//32
f 31//15 25//17 21//33
f 18//10 30//9 13//34
f 1//35 6//36 7//36
f 11//37 26//37 16//37
f 1//38 14//39 28//32
f 25//40 30//40 11//41
f 19//42 7//42 33//42
f 4//31 18//10 13//34
f 19//43 31//43 21//43
f 16//44 3//45 15//46
f 31//15 24//47 13//16
f 11//48 16//49 2//26
f 32//50 1//38 28//32
f 5//51 31//51 19//51
f 16//44 20//52 3//45
f 17//6 9//21 1//53
f 6//36 33//54 7//36
f 12//55 3//55 10//56
f 30//40 25//40 13//57
f 7//58 12//59 14//58
f 22//60 21//60 25//60
f 12//61 10//62 18//30
f 4//31 13//34 24//63
f 12//61 18//30 14//39
f 32//64 24//64 29//64
f 17//6 5//5 27//22
f 12//55 15//65 3//55
f 29//66 1//66 32//66
f 8//67 30//67 10//67
f 1//68 7//58 14//58
f 22//69 2//69 19//69
f 14//39 18//30 28//32
f 30//70 26//70 11//70
f 21//71 22//71 19//71
f 23//27 2//26 16//49
f 10//72 3//72 8//72
f 1//53 29//73 17//6
f 16//44 15//46 23//74
f 29//4 31//75 5//5
f 28//32 4//31 24//63
f 32//50 28//32 24//63
f 25//76 11//48 2//26
f 6//77 1//78 9//77
f 33//79 6//77 9//77

